M48
; DRILL file KiCad 10.0.4 date 2026-06-29T15:53:15
; FORMAT={-:-/ absolute / metric / decimal}
; #@! TF.CreationDate,2026-06-29T15:53:15-05:00
; #@! TF.GenerationSoftware,Kicad,Pcbnew,10.0.4
; #@! TF.FileFunction,Plated,1,2,PTH
FMAT,2
METRIC
; #@! TA.AperFunction,Plated,PTH,ComponentDrill
T1C0.200
; #@! TA.AperFunction,Plated,PTH,ViaDrill
T2C0.300
; #@! TA.AperFunction,Plated,PTH,ComponentDrill
T3C0.600
; #@! TA.AperFunction,Plated,PTH,ComponentDrill
T4C0.700
; #@! TA.AperFunction,Plated,PTH,ComponentDrill
T5C0.800
; #@! TA.AperFunction,Plated,PTH,ComponentDrill
T6C1.000
; #@! TA.AperFunction,Plated,PTH,ComponentDrill
T7C1.010
; #@! TA.AperFunction,Plated,PTH,ComponentDrill
T8C1.020
; #@! TA.AperFunction,Plated,PTH,ComponentDrill
T9C1.067
; #@! TA.AperFunction,Plated,PTH,ComponentDrill
T10C1.600
%
G90
G05
T1
X74.85Y-40.9
X74.85Y-42.3
X75.55Y-40.2
X75.55Y-43.0
X76.25Y-40.9
X76.25Y-42.3
X76.95Y-40.2
X76.95Y-43.0
X77.65Y-40.9
X77.65Y-42.3
T2
X34.5Y-56.475
X34.9Y-64.875
X34.9Y-67.475
X35.9Y-39.875
X36.0Y-82.0
X36.7Y-30.275
X37.782Y-68.979
X38.039Y-61.545
X39.3Y-49.675
X39.625Y-52.0
X39.7Y-76.875
X41.9Y-57.675
X41.9Y-67.075
X42.3Y-61.075
X42.5Y-41.475
X43.3Y-19.875
X44.5Y-35.075
X44.5Y-64.0
X44.7Y-41.675
X45.516Y-73.423
X45.9Y-28.675
X45.9Y-87.0
X46.5Y-45.075
X47.1Y-65.875
X47.7Y-27.075
X48.1Y-34.675
X48.22Y-54.103
X48.272Y-89.595
X48.3Y-43.675
X48.7Y-39.475
X48.9Y-85.875
X49.0Y-64.0
X49.5Y-73.075
X50.5Y-44.675
X50.9Y-69.475
X51.1Y-76.275
X51.173Y-57.755
X51.3Y-72.275
X51.7Y-73.875
X51.701Y-64.552
X52.1Y-82.075
X53.0Y-71.875
X55.0Y-91.5
X55.3Y-40.875
X55.5Y-72.275
X55.704Y-65.849
X56.5Y-88.5
X56.7Y-28.675
X56.7Y-31.675
X56.85Y-42.675
X56.9Y-33.475
X58.3Y-26.875
X58.384Y-72.449
X59.028Y-88.27
X59.299Y-37.885
X59.45Y-83.026
X60.5Y-45.5
X60.5Y-52.5
X60.716Y-89.84
X61.259Y-85.152
X61.282Y-74.844
X61.3Y-96.275
X61.5Y-65.0
X61.544Y-79.573
X61.658Y-72.715
X61.715Y-61.172
X62.4Y-42.975
X62.7Y-38.075
X62.77Y-47.606
X63.131Y-36.523
X63.449Y-71.5
X63.5Y-77.5
X63.792Y-46.454
X64.05Y-29.25
X65.15Y-55.975
X65.25Y-53.025
X65.25Y-54.625
X65.5Y-74.0
X65.611Y-81.869
X66.0Y-60.0
X66.234Y-64.85
X66.5Y-82.5
X66.55Y-38.85
X66.575Y-48.5
X66.9Y-20.475
X67.493Y-42.703
X67.525Y-37.108
X67.9Y-57.275
X68.0Y-53.075
X68.15Y-54.275
X68.15Y-55.825
X68.3Y-30.475
X68.35Y-84.6
X68.769Y-80.21
X68.85Y-31.675
X69.5Y-62.5
X70.0Y-89.125
X71.25Y-59.375
X71.285Y-54.263
X71.381Y-24.74
X71.649Y-81.796
X71.975Y-86.4
X72.335Y-69.539
X72.345Y-65.417
X72.367Y-74.736
X72.5Y-42.0
X72.675Y-31.0
X72.85Y-70.483
X73.0Y-88.0
X73.769Y-69.564
X73.85Y-58.325
X74.0Y-81.0
X74.1Y-21.875
X74.1Y-88.225
X74.134Y-73.978
X74.25Y-77.877
X74.953Y-86.98
X76.3Y-31.875
X76.5Y-38.5
X76.5Y-45.0
X76.5Y-86.5
X77.025Y-89.025
X77.4Y-67.275
X77.5Y-71.275
X77.8Y-58.375
X78.4Y-60.075
X78.75Y-65.675
X78.9Y-27.075
X79.25Y-67.175
X79.4Y-55.075
X79.4Y-58.775
X80.175Y-76.325
X80.325Y-70.35
X80.5Y-41.5
X80.7Y-53.675
X80.8Y-67.175
X80.925Y-94.475
X81.1Y-64.075
X81.45Y-68.8
X81.9Y-75.675
X82.0Y-85.5
X83.0Y-66.5
X83.5Y-27.475
X83.9Y-74.275
X84.0Y-62.5
X84.1Y-31.275
X84.7Y-75.075
X85.0Y-59.775
X85.1Y-77.625
X85.85Y-55.225
X85.9Y-53.275
X86.1Y-75.075
X86.125Y-65.4
X86.55Y-76.575
X87.075Y-87.45
X87.2Y-54.775
X87.3Y-53.875
X87.425Y-68.975
X87.5Y-55.875
X87.625Y-73.15
X88.2Y-66.275
X88.4Y-60.475
X88.5Y-44.275
X88.65Y-74.275
X88.725Y-57.075
X88.85Y-76.425
X89.1Y-49.875
X89.1Y-52.275
X89.1Y-53.275
X89.1Y-55.875
X89.336Y-44.861
X89.5Y-54.275
X89.75Y-67.175
X90.3Y-58.875
X90.5Y-49.075
X91.0Y-68.575
X91.2Y-71.525
X91.55Y-57.725
X91.55Y-58.925
X91.839Y-40.047
X91.9Y-47.875
X91.9Y-52.475
X91.9Y-54.275
X92.0Y-76.0
X92.1Y-79.425
X92.3Y-47.075
X92.7Y-73.875
X92.9Y-71.525
X93.429Y-39.875
X93.9Y-27.875
X93.9Y-71.675
X94.1Y-59.075
X94.35Y-73.875
X94.5Y-54.075
X94.5Y-55.875
X94.7Y-39.275
X95.3Y-25.075
X95.4Y-69.6
X95.5Y-57.275
X95.676Y-39.275
X95.9Y-85.675
X96.1Y-53.875
X96.776Y-39.875
X96.991Y-23.396
X97.28Y-37.975
X97.402Y-57.331
X98.2Y-74.025
X98.88Y-36.775
X99.08Y-34.375
X99.1Y-31.675
X99.3Y-38.475
X99.3Y-91.075
X104.047Y-35.156
X110.3Y-69.275
X110.5Y-85.875
T4
X92.945Y-44.425
X98.025Y-44.425
T5
X39.65Y-72.472
X39.65Y-74.972
X46.85Y-67.45
X46.85Y-69.95
X51.7Y-45.875
X52.885Y-63.432
X53.125Y-36.6
X53.125Y-39.1
X53.468Y-47.643
X54.652Y-61.664
X57.732Y-51.907
X59.5Y-53.675
T6
X39.71Y-59.275
X42.25Y-59.275
X44.79Y-59.275
X72.85Y-23.4
X75.35Y-23.4
X77.85Y-23.4
X80.35Y-23.4
X82.85Y-23.4
X85.35Y-23.4
X87.85Y-23.4
X90.35Y-23.4
X92.85Y-23.4
X95.35Y-23.4
T7
X43.638Y-40.335
X43.638Y-42.875
X43.638Y-45.415
T8
X47.6Y-28.795
X50.6Y-28.795
X58.4Y-28.795
X61.4Y-28.795
T9
X47.797Y-87.553
X50.794Y-87.553
X102.58Y-33.575
X102.58Y-36.572
T10
X40.15Y-80.375
X40.15Y-83.775
X53.62Y-80.375
X53.62Y-83.775
T3
G00X69.53Y-90.775
M15
G01X69.53Y-91.575
M16
G05
G00X69.53Y-94.575
M15
G01X69.53Y-95.775
M16
G05
G00X78.17Y-90.775
M15
G01X78.17Y-91.575
M16
G05
G00X78.17Y-94.575
M15
G01X78.17Y-95.775
M16
G05
M30
