%TF.GenerationSoftware,KiCad,Pcbnew,10.0.4*%
%TF.CreationDate,2026-07-17T08:05:41-05:00*%
%TF.ProjectId,DataLogger2025,44617461-4c6f-4676-9765-72323032352e,1*%
%TF.SameCoordinates,Original*%
%TF.FileFunction,Paste,Top*%
%TF.FilePolarity,Positive*%
%FSLAX46Y46*%
G04 Gerber Fmt 4.6, Leading zero omitted, Abs format (unit mm)*
G04 Created by KiCad (PCBNEW 10.0.4) date 2026-07-17 08:05:41*
%MOMM*%
%LPD*%
G01*
G04 APERTURE LIST*
G04 Aperture macros list*
%AMRoundRect*
0 Rectangle with rounded corners*
0 $1 Rounding radius*
0 $2 $3 $4 $5 $6 $7 $8 $9 X,Y pos of 4 corners*
0 Add a 4 corners polygon primitive as box body*
4,1,4,$2,$3,$4,$5,$6,$7,$8,$9,$2,$3,0*
0 Add four circle primitives for the rounded corners*
1,1,$1+$1,$2,$3*
1,1,$1+$1,$4,$5*
1,1,$1+$1,$6,$7*
1,1,$1+$1,$8,$9*
0 Add four rect primitives between the rounded corners*
20,1,$1+$1,$2,$3,$4,$5,0*
20,1,$1+$1,$4,$5,$6,$7,0*
20,1,$1+$1,$6,$7,$8,$9,0*
20,1,$1+$1,$8,$9,$2,$3,0*%
G04 Aperture macros list end*
%ADD10R,1.500000X0.900000*%
%ADD11R,0.900000X1.500000*%
%ADD12R,0.900000X0.900000*%
%ADD13RoundRect,0.250000X-0.625000X0.400000X-0.625000X-0.400000X0.625000X-0.400000X0.625000X0.400000X0*%
%ADD14RoundRect,0.250000X0.400000X0.625000X-0.400000X0.625000X-0.400000X-0.625000X0.400000X-0.625000X0*%
%ADD15RoundRect,0.250000X0.650000X-0.412500X0.650000X0.412500X-0.650000X0.412500X-0.650000X-0.412500X0*%
%ADD16RoundRect,0.250000X-1.000000X-0.900000X1.000000X-0.900000X1.000000X0.900000X-1.000000X0.900000X0*%
%ADD17RoundRect,0.250000X0.625000X-0.400000X0.625000X0.400000X-0.625000X0.400000X-0.625000X-0.400000X0*%
%ADD18RoundRect,0.250000X-0.412500X-0.650000X0.412500X-0.650000X0.412500X0.650000X-0.412500X0.650000X0*%
%ADD19R,1.200000X1.200000*%
%ADD20R,1.500000X0.800000*%
%ADD21R,1.900000X1.400000*%
%ADD22R,1.400000X1.800000*%
%ADD23RoundRect,0.250000X-0.650000X0.412500X-0.650000X-0.412500X0.650000X-0.412500X0.650000X0.412500X0*%
%ADD24R,1.143000X1.092200*%
%ADD25RoundRect,0.250000X1.500000X0.900000X-1.500000X0.900000X-1.500000X-0.900000X1.500000X-0.900000X0*%
%ADD26R,0.800000X0.800000*%
%ADD27R,0.590000X1.150000*%
%ADD28R,0.298000X1.150000*%
%ADD29RoundRect,0.250000X0.412500X0.650000X-0.412500X0.650000X-0.412500X-0.650000X0.412500X-0.650000X0*%
%ADD30RoundRect,0.150000X0.150000X-0.825000X0.150000X0.825000X-0.150000X0.825000X-0.150000X-0.825000X0*%
%ADD31R,0.876300X0.558800*%
%ADD32R,1.244600X0.558800*%
%ADD33R,0.457200X0.812800*%
%ADD34RoundRect,0.250000X-0.167938X0.751301X-0.751301X0.167938X0.167938X-0.751301X0.751301X-0.167938X0*%
%ADD35R,0.900000X1.000000*%
G04 APERTURE END LIST*
D10*
%TO.C,U4*%
X69000000Y-33880000D03*
X69000000Y-35150000D03*
X69000000Y-36420000D03*
X69000000Y-37690000D03*
X69000000Y-38960000D03*
X69000000Y-40230000D03*
X69000000Y-41500000D03*
X69000000Y-42770000D03*
X69000000Y-44040000D03*
X69000000Y-45310000D03*
X69000000Y-46580000D03*
X69000000Y-47850000D03*
X69000000Y-49120000D03*
X69000000Y-50390000D03*
D11*
X70765000Y-51640000D03*
X72035000Y-51640000D03*
X73305000Y-51640000D03*
X74575000Y-51640000D03*
X75845000Y-51640000D03*
X77115000Y-51640000D03*
X78385000Y-51640000D03*
X79655000Y-51640000D03*
X80925000Y-51640000D03*
X82195000Y-51640000D03*
X83465000Y-51640000D03*
X84735000Y-51640000D03*
D10*
X86500000Y-50390000D03*
X86500000Y-49120000D03*
X86500000Y-47850000D03*
X86500000Y-46580000D03*
X86500000Y-45310000D03*
X86500000Y-44040000D03*
X86500000Y-42770000D03*
X86500000Y-41500000D03*
X86500000Y-40230000D03*
X86500000Y-38960000D03*
X86500000Y-37690000D03*
X86500000Y-36420000D03*
X86500000Y-35150000D03*
X86500000Y-33880000D03*
D12*
X74850000Y-40200000D03*
X76250000Y-40200000D03*
X77650000Y-40200000D03*
X74850000Y-41600000D03*
X76250000Y-41600000D03*
X77650000Y-41600000D03*
X74850000Y-43000000D03*
X76250000Y-43000000D03*
X77650000Y-43000000D03*
%TD*%
D13*
%TO.C,R6*%
X93600000Y-66825001D03*
X93600000Y-69925001D03*
%TD*%
%TO.C,R10*%
X96700000Y-60125001D03*
X96700000Y-63225001D03*
%TD*%
%TO.C,R11*%
X75300000Y-27125001D03*
X75300000Y-30225001D03*
%TD*%
D14*
%TO.C,R3*%
X43050000Y-32075001D03*
X39950000Y-32075001D03*
%TD*%
D15*
%TO.C,C21*%
X66700000Y-33837501D03*
X66700000Y-30712501D03*
%TD*%
D16*
%TO.C,D1_RP1*%
X53750000Y-75075001D03*
X58050000Y-75075001D03*
%TD*%
D17*
%TO.C,R1*%
X60900000Y-41825000D03*
X60900000Y-38725000D03*
%TD*%
D15*
%TO.C,C5*%
X49050000Y-62412501D03*
X49050000Y-59287501D03*
%TD*%
D13*
%TO.C,R12*%
X83750000Y-69525001D03*
X83750000Y-72625001D03*
%TD*%
D14*
%TO.C,R9*%
X72850000Y-56675001D03*
X69750000Y-56675001D03*
%TD*%
D18*
%TO.C,C24*%
X69762500Y-54250001D03*
X72887500Y-54250001D03*
%TD*%
D15*
%TO.C,C11*%
X46500000Y-43437501D03*
X46500000Y-40312501D03*
%TD*%
D19*
%TO.C,D3*%
X35850000Y-32075001D03*
X37950000Y-32075001D03*
%TD*%
D20*
%TO.C,J2*%
X100000000Y-79415001D03*
X100400000Y-78315001D03*
X100000000Y-77215001D03*
X99800000Y-76115001D03*
X100000000Y-75015001D03*
X99800000Y-73915001D03*
X100000000Y-72815001D03*
X100000000Y-71715001D03*
D21*
X97150000Y-70925001D03*
X96150000Y-84075001D03*
D22*
X110300000Y-72525001D03*
X110300000Y-78225001D03*
%TD*%
D23*
%TO.C,C20*%
X64100000Y-30712501D03*
X64100000Y-33837501D03*
%TD*%
D17*
%TO.C,R7*%
X86075000Y-72625002D03*
X86075000Y-69525002D03*
%TD*%
D24*
%TO.C,D2*%
X64500000Y-63387100D03*
X64500000Y-66612900D03*
%TD*%
D25*
%TO.C,D2_TVS1*%
X59200000Y-69675001D03*
X53800000Y-69675001D03*
%TD*%
D26*
%TO.C,D5*%
X99100000Y-63225001D03*
X99100000Y-61725001D03*
%TD*%
D13*
%TO.C,R4*%
X70000000Y-76450000D03*
X70000000Y-79550000D03*
%TD*%
D27*
%TO.C,J1*%
X70650000Y-90600001D03*
X71450000Y-90600001D03*
D28*
X72600000Y-90600001D03*
X73600000Y-90600001D03*
X74100000Y-90600001D03*
X75100000Y-90600001D03*
D27*
X77050000Y-90600001D03*
X76250000Y-90600001D03*
D28*
X75600000Y-90600001D03*
X74600000Y-90600001D03*
X73100000Y-90600001D03*
X72100000Y-90600001D03*
%TD*%
D18*
%TO.C,C10*%
X41137500Y-49675001D03*
X44262500Y-49675001D03*
%TD*%
%TO.C,C9*%
X41137500Y-52075001D03*
X44262500Y-52075001D03*
%TD*%
D13*
%TO.C,R5*%
X78500000Y-84450000D03*
X78500000Y-87550000D03*
%TD*%
D14*
%TO.C,R2*%
X86650000Y-57675001D03*
X83550000Y-57675001D03*
%TD*%
D29*
%TO.C,C4*%
X42887500Y-64400001D03*
X39762500Y-64400001D03*
%TD*%
D30*
%TO.C,U3*%
X93595000Y-52150001D03*
X94865000Y-52150001D03*
X96135000Y-52150001D03*
X97405000Y-52150001D03*
X97405000Y-47200001D03*
X96135000Y-47200001D03*
X94865000Y-47200001D03*
X93595000Y-47200001D03*
%TD*%
D31*
%TO.C,CR1*%
X71314450Y-83939800D03*
X71314450Y-83000000D03*
X71314450Y-82060200D03*
X68685550Y-82060200D03*
X68685550Y-83000000D03*
X68685550Y-83939800D03*
%TD*%
D32*
%TO.C,U2*%
X96225900Y-34622501D03*
X96225900Y-36527501D03*
X98334100Y-35575001D03*
%TD*%
D15*
%TO.C,C27*%
X89200000Y-72687501D03*
X89200000Y-69562501D03*
%TD*%
D18*
%TO.C,C12*%
X43537500Y-37750001D03*
X46662500Y-37750001D03*
%TD*%
D29*
%TO.C,C26*%
X93412500Y-75825001D03*
X90287500Y-75825001D03*
%TD*%
D33*
%TO.C,U1*%
X95544114Y-40544922D03*
X94844116Y-40544922D03*
X94844116Y-42551522D03*
X95544114Y-42551522D03*
%TD*%
D24*
%TO.C,D1*%
X59000000Y-59887100D03*
X59000000Y-63112900D03*
%TD*%
D34*
%TO.C,C22*%
X65804854Y-37370147D03*
X63595146Y-39579855D03*
%TD*%
D35*
%TO.C,SW1*%
X82650000Y-62475001D03*
X86750000Y-62475001D03*
X82650000Y-64075001D03*
X86750000Y-64075001D03*
%TD*%
D18*
%TO.C,C3*%
X36650000Y-66850001D03*
X39775000Y-66850001D03*
%TD*%
M02*
