%TF.GenerationSoftware,KiCad,Pcbnew,10.0.4*%
%TF.CreationDate,2026-07-17T08:05:41-05:00*%
%TF.ProjectId,DataLogger2025,44617461-4c6f-4676-9765-72323032352e,1*%
%TF.SameCoordinates,Original*%
%TF.FileFunction,Legend,Bot*%
%TF.FilePolarity,Positive*%
%FSLAX46Y46*%
G04 Gerber Fmt 4.6, Leading zero omitted, Abs format (unit mm)*
G04 Created by KiCad (PCBNEW 10.0.4) date 2026-07-17 08:05:41*
%MOMM*%
%LPD*%
G01*
G04 APERTURE LIST*
%ADD10C,0.150000*%
%ADD11C,0.508000*%
%ADD12C,0.120000*%
G04 APERTURE END LIST*
D10*
X99261904Y-39806819D02*
X98690476Y-39806819D01*
X98976190Y-40806819D02*
X98976190Y-39806819D01*
X98357142Y-40806819D02*
X98357142Y-39806819D01*
X98357142Y-39806819D02*
X97976190Y-39806819D01*
X97976190Y-39806819D02*
X97880952Y-39854438D01*
X97880952Y-39854438D02*
X97833333Y-39902057D01*
X97833333Y-39902057D02*
X97785714Y-39997295D01*
X97785714Y-39997295D02*
X97785714Y-40140152D01*
X97785714Y-40140152D02*
X97833333Y-40235390D01*
X97833333Y-40235390D02*
X97880952Y-40283009D01*
X97880952Y-40283009D02*
X97976190Y-40330628D01*
X97976190Y-40330628D02*
X98357142Y-40330628D01*
X96928571Y-39806819D02*
X97119047Y-39806819D01*
X97119047Y-39806819D02*
X97214285Y-39854438D01*
X97214285Y-39854438D02*
X97261904Y-39902057D01*
X97261904Y-39902057D02*
X97357142Y-40044914D01*
X97357142Y-40044914D02*
X97404761Y-40235390D01*
X97404761Y-40235390D02*
X97404761Y-40616342D01*
X97404761Y-40616342D02*
X97357142Y-40711580D01*
X97357142Y-40711580D02*
X97309523Y-40759200D01*
X97309523Y-40759200D02*
X97214285Y-40806819D01*
X97214285Y-40806819D02*
X97023809Y-40806819D01*
X97023809Y-40806819D02*
X96928571Y-40759200D01*
X96928571Y-40759200D02*
X96880952Y-40711580D01*
X96880952Y-40711580D02*
X96833333Y-40616342D01*
X96833333Y-40616342D02*
X96833333Y-40378247D01*
X96833333Y-40378247D02*
X96880952Y-40283009D01*
X96880952Y-40283009D02*
X96928571Y-40235390D01*
X96928571Y-40235390D02*
X97023809Y-40187771D01*
X97023809Y-40187771D02*
X97214285Y-40187771D01*
X97214285Y-40187771D02*
X97309523Y-40235390D01*
X97309523Y-40235390D02*
X97357142Y-40283009D01*
X97357142Y-40283009D02*
X97404761Y-40378247D01*
X57059580Y-31057143D02*
X57107200Y-31009524D01*
X57107200Y-31009524D02*
X57154819Y-30866667D01*
X57154819Y-30866667D02*
X57154819Y-30771429D01*
X57154819Y-30771429D02*
X57107200Y-30628572D01*
X57107200Y-30628572D02*
X57011961Y-30533334D01*
X57011961Y-30533334D02*
X56916723Y-30485715D01*
X56916723Y-30485715D02*
X56726247Y-30438096D01*
X56726247Y-30438096D02*
X56583390Y-30438096D01*
X56583390Y-30438096D02*
X56392914Y-30485715D01*
X56392914Y-30485715D02*
X56297676Y-30533334D01*
X56297676Y-30533334D02*
X56202438Y-30628572D01*
X56202438Y-30628572D02*
X56154819Y-30771429D01*
X56154819Y-30771429D02*
X56154819Y-30866667D01*
X56154819Y-30866667D02*
X56202438Y-31009524D01*
X56202438Y-31009524D02*
X56250057Y-31057143D01*
X57154819Y-32009524D02*
X57154819Y-31438096D01*
X57154819Y-31723810D02*
X56154819Y-31723810D01*
X56154819Y-31723810D02*
X56297676Y-31628572D01*
X56297676Y-31628572D02*
X56392914Y-31533334D01*
X56392914Y-31533334D02*
X56440533Y-31438096D01*
X57154819Y-32485715D02*
X57154819Y-32676191D01*
X57154819Y-32676191D02*
X57107200Y-32771429D01*
X57107200Y-32771429D02*
X57059580Y-32819048D01*
X57059580Y-32819048D02*
X56916723Y-32914286D01*
X56916723Y-32914286D02*
X56726247Y-32961905D01*
X56726247Y-32961905D02*
X56345295Y-32961905D01*
X56345295Y-32961905D02*
X56250057Y-32914286D01*
X56250057Y-32914286D02*
X56202438Y-32866667D01*
X56202438Y-32866667D02*
X56154819Y-32771429D01*
X56154819Y-32771429D02*
X56154819Y-32580953D01*
X56154819Y-32580953D02*
X56202438Y-32485715D01*
X56202438Y-32485715D02*
X56250057Y-32438096D01*
X56250057Y-32438096D02*
X56345295Y-32390477D01*
X56345295Y-32390477D02*
X56583390Y-32390477D01*
X56583390Y-32390477D02*
X56678628Y-32438096D01*
X56678628Y-32438096D02*
X56726247Y-32485715D01*
X56726247Y-32485715D02*
X56773866Y-32580953D01*
X56773866Y-32580953D02*
X56773866Y-32771429D01*
X56773866Y-32771429D02*
X56726247Y-32866667D01*
X56726247Y-32866667D02*
X56678628Y-32914286D01*
X56678628Y-32914286D02*
X56583390Y-32961905D01*
X64642857Y-38659581D02*
X64690476Y-38707201D01*
X64690476Y-38707201D02*
X64833333Y-38754820D01*
X64833333Y-38754820D02*
X64928571Y-38754820D01*
X64928571Y-38754820D02*
X65071428Y-38707201D01*
X65071428Y-38707201D02*
X65166666Y-38611962D01*
X65166666Y-38611962D02*
X65214285Y-38516724D01*
X65214285Y-38516724D02*
X65261904Y-38326248D01*
X65261904Y-38326248D02*
X65261904Y-38183391D01*
X65261904Y-38183391D02*
X65214285Y-37992915D01*
X65214285Y-37992915D02*
X65166666Y-37897677D01*
X65166666Y-37897677D02*
X65071428Y-37802439D01*
X65071428Y-37802439D02*
X64928571Y-37754820D01*
X64928571Y-37754820D02*
X64833333Y-37754820D01*
X64833333Y-37754820D02*
X64690476Y-37802439D01*
X64690476Y-37802439D02*
X64642857Y-37850058D01*
X63690476Y-38754820D02*
X64261904Y-38754820D01*
X63976190Y-38754820D02*
X63976190Y-37754820D01*
X63976190Y-37754820D02*
X64071428Y-37897677D01*
X64071428Y-37897677D02*
X64166666Y-37992915D01*
X64166666Y-37992915D02*
X64261904Y-38040534D01*
X63357142Y-37754820D02*
X62690476Y-37754820D01*
X62690476Y-37754820D02*
X63119047Y-38754820D01*
X94261904Y-39835918D02*
X93690476Y-39835918D01*
X93976190Y-40835918D02*
X93976190Y-39835918D01*
X93357142Y-40835918D02*
X93357142Y-39835918D01*
X93357142Y-39835918D02*
X92976190Y-39835918D01*
X92976190Y-39835918D02*
X92880952Y-39883537D01*
X92880952Y-39883537D02*
X92833333Y-39931156D01*
X92833333Y-39931156D02*
X92785714Y-40026394D01*
X92785714Y-40026394D02*
X92785714Y-40169251D01*
X92785714Y-40169251D02*
X92833333Y-40264489D01*
X92833333Y-40264489D02*
X92880952Y-40312108D01*
X92880952Y-40312108D02*
X92976190Y-40359727D01*
X92976190Y-40359727D02*
X93357142Y-40359727D01*
X92452380Y-39835918D02*
X91785714Y-39835918D01*
X91785714Y-39835918D02*
X92214285Y-40835918D01*
X46209580Y-35832143D02*
X46257200Y-35784524D01*
X46257200Y-35784524D02*
X46304819Y-35641667D01*
X46304819Y-35641667D02*
X46304819Y-35546429D01*
X46304819Y-35546429D02*
X46257200Y-35403572D01*
X46257200Y-35403572D02*
X46161961Y-35308334D01*
X46161961Y-35308334D02*
X46066723Y-35260715D01*
X46066723Y-35260715D02*
X45876247Y-35213096D01*
X45876247Y-35213096D02*
X45733390Y-35213096D01*
X45733390Y-35213096D02*
X45542914Y-35260715D01*
X45542914Y-35260715D02*
X45447676Y-35308334D01*
X45447676Y-35308334D02*
X45352438Y-35403572D01*
X45352438Y-35403572D02*
X45304819Y-35546429D01*
X45304819Y-35546429D02*
X45304819Y-35641667D01*
X45304819Y-35641667D02*
X45352438Y-35784524D01*
X45352438Y-35784524D02*
X45400057Y-35832143D01*
X46304819Y-36784524D02*
X46304819Y-36213096D01*
X46304819Y-36498810D02*
X45304819Y-36498810D01*
X45304819Y-36498810D02*
X45447676Y-36403572D01*
X45447676Y-36403572D02*
X45542914Y-36308334D01*
X45542914Y-36308334D02*
X45590533Y-36213096D01*
X45638152Y-37641667D02*
X46304819Y-37641667D01*
X45257200Y-37403572D02*
X45971485Y-37165477D01*
X45971485Y-37165477D02*
X45971485Y-37784524D01*
X48992857Y-34409581D02*
X49040476Y-34457201D01*
X49040476Y-34457201D02*
X49183333Y-34504820D01*
X49183333Y-34504820D02*
X49278571Y-34504820D01*
X49278571Y-34504820D02*
X49421428Y-34457201D01*
X49421428Y-34457201D02*
X49516666Y-34361962D01*
X49516666Y-34361962D02*
X49564285Y-34266724D01*
X49564285Y-34266724D02*
X49611904Y-34076248D01*
X49611904Y-34076248D02*
X49611904Y-33933391D01*
X49611904Y-33933391D02*
X49564285Y-33742915D01*
X49564285Y-33742915D02*
X49516666Y-33647677D01*
X49516666Y-33647677D02*
X49421428Y-33552439D01*
X49421428Y-33552439D02*
X49278571Y-33504820D01*
X49278571Y-33504820D02*
X49183333Y-33504820D01*
X49183333Y-33504820D02*
X49040476Y-33552439D01*
X49040476Y-33552439D02*
X48992857Y-33600058D01*
X48040476Y-34504820D02*
X48611904Y-34504820D01*
X48326190Y-34504820D02*
X48326190Y-33504820D01*
X48326190Y-33504820D02*
X48421428Y-33647677D01*
X48421428Y-33647677D02*
X48516666Y-33742915D01*
X48516666Y-33742915D02*
X48611904Y-33790534D01*
X47135714Y-33504820D02*
X47611904Y-33504820D01*
X47611904Y-33504820D02*
X47659523Y-33981010D01*
X47659523Y-33981010D02*
X47611904Y-33933391D01*
X47611904Y-33933391D02*
X47516666Y-33885772D01*
X47516666Y-33885772D02*
X47278571Y-33885772D01*
X47278571Y-33885772D02*
X47183333Y-33933391D01*
X47183333Y-33933391D02*
X47135714Y-33981010D01*
X47135714Y-33981010D02*
X47088095Y-34076248D01*
X47088095Y-34076248D02*
X47088095Y-34314343D01*
X47088095Y-34314343D02*
X47135714Y-34409581D01*
X47135714Y-34409581D02*
X47183333Y-34457201D01*
X47183333Y-34457201D02*
X47278571Y-34504820D01*
X47278571Y-34504820D02*
X47516666Y-34504820D01*
X47516666Y-34504820D02*
X47611904Y-34457201D01*
X47611904Y-34457201D02*
X47659523Y-34409581D01*
X101309580Y-54832143D02*
X101357200Y-54784524D01*
X101357200Y-54784524D02*
X101404819Y-54641667D01*
X101404819Y-54641667D02*
X101404819Y-54546429D01*
X101404819Y-54546429D02*
X101357200Y-54403572D01*
X101357200Y-54403572D02*
X101261961Y-54308334D01*
X101261961Y-54308334D02*
X101166723Y-54260715D01*
X101166723Y-54260715D02*
X100976247Y-54213096D01*
X100976247Y-54213096D02*
X100833390Y-54213096D01*
X100833390Y-54213096D02*
X100642914Y-54260715D01*
X100642914Y-54260715D02*
X100547676Y-54308334D01*
X100547676Y-54308334D02*
X100452438Y-54403572D01*
X100452438Y-54403572D02*
X100404819Y-54546429D01*
X100404819Y-54546429D02*
X100404819Y-54641667D01*
X100404819Y-54641667D02*
X100452438Y-54784524D01*
X100452438Y-54784524D02*
X100500057Y-54832143D01*
X100500057Y-55213096D02*
X100452438Y-55260715D01*
X100452438Y-55260715D02*
X100404819Y-55355953D01*
X100404819Y-55355953D02*
X100404819Y-55594048D01*
X100404819Y-55594048D02*
X100452438Y-55689286D01*
X100452438Y-55689286D02*
X100500057Y-55736905D01*
X100500057Y-55736905D02*
X100595295Y-55784524D01*
X100595295Y-55784524D02*
X100690533Y-55784524D01*
X100690533Y-55784524D02*
X100833390Y-55736905D01*
X100833390Y-55736905D02*
X101404819Y-55165477D01*
X101404819Y-55165477D02*
X101404819Y-55784524D01*
X100404819Y-56689286D02*
X100404819Y-56213096D01*
X100404819Y-56213096D02*
X100881009Y-56165477D01*
X100881009Y-56165477D02*
X100833390Y-56213096D01*
X100833390Y-56213096D02*
X100785771Y-56308334D01*
X100785771Y-56308334D02*
X100785771Y-56546429D01*
X100785771Y-56546429D02*
X100833390Y-56641667D01*
X100833390Y-56641667D02*
X100881009Y-56689286D01*
X100881009Y-56689286D02*
X100976247Y-56736905D01*
X100976247Y-56736905D02*
X101214342Y-56736905D01*
X101214342Y-56736905D02*
X101309580Y-56689286D01*
X101309580Y-56689286D02*
X101357200Y-56641667D01*
X101357200Y-56641667D02*
X101404819Y-56546429D01*
X101404819Y-56546429D02*
X101404819Y-56308334D01*
X101404819Y-56308334D02*
X101357200Y-56213096D01*
X101357200Y-56213096D02*
X101309580Y-56165477D01*
X46209580Y-31232143D02*
X46257200Y-31184524D01*
X46257200Y-31184524D02*
X46304819Y-31041667D01*
X46304819Y-31041667D02*
X46304819Y-30946429D01*
X46304819Y-30946429D02*
X46257200Y-30803572D01*
X46257200Y-30803572D02*
X46161961Y-30708334D01*
X46161961Y-30708334D02*
X46066723Y-30660715D01*
X46066723Y-30660715D02*
X45876247Y-30613096D01*
X45876247Y-30613096D02*
X45733390Y-30613096D01*
X45733390Y-30613096D02*
X45542914Y-30660715D01*
X45542914Y-30660715D02*
X45447676Y-30708334D01*
X45447676Y-30708334D02*
X45352438Y-30803572D01*
X45352438Y-30803572D02*
X45304819Y-30946429D01*
X45304819Y-30946429D02*
X45304819Y-31041667D01*
X45304819Y-31041667D02*
X45352438Y-31184524D01*
X45352438Y-31184524D02*
X45400057Y-31232143D01*
X46304819Y-32184524D02*
X46304819Y-31613096D01*
X46304819Y-31898810D02*
X45304819Y-31898810D01*
X45304819Y-31898810D02*
X45447676Y-31803572D01*
X45447676Y-31803572D02*
X45542914Y-31708334D01*
X45542914Y-31708334D02*
X45590533Y-31613096D01*
X45304819Y-33041667D02*
X45304819Y-32851191D01*
X45304819Y-32851191D02*
X45352438Y-32755953D01*
X45352438Y-32755953D02*
X45400057Y-32708334D01*
X45400057Y-32708334D02*
X45542914Y-32613096D01*
X45542914Y-32613096D02*
X45733390Y-32565477D01*
X45733390Y-32565477D02*
X46114342Y-32565477D01*
X46114342Y-32565477D02*
X46209580Y-32613096D01*
X46209580Y-32613096D02*
X46257200Y-32660715D01*
X46257200Y-32660715D02*
X46304819Y-32755953D01*
X46304819Y-32755953D02*
X46304819Y-32946429D01*
X46304819Y-32946429D02*
X46257200Y-33041667D01*
X46257200Y-33041667D02*
X46209580Y-33089286D01*
X46209580Y-33089286D02*
X46114342Y-33136905D01*
X46114342Y-33136905D02*
X45876247Y-33136905D01*
X45876247Y-33136905D02*
X45781009Y-33089286D01*
X45781009Y-33089286D02*
X45733390Y-33041667D01*
X45733390Y-33041667D02*
X45685771Y-32946429D01*
X45685771Y-32946429D02*
X45685771Y-32755953D01*
X45685771Y-32755953D02*
X45733390Y-32660715D01*
X45733390Y-32660715D02*
X45781009Y-32613096D01*
X45781009Y-32613096D02*
X45876247Y-32565477D01*
X43251830Y-29079852D02*
X43251830Y-29794137D01*
X43251830Y-29794137D02*
X43299449Y-29936994D01*
X43299449Y-29936994D02*
X43394687Y-30032233D01*
X43394687Y-30032233D02*
X43537544Y-30079852D01*
X43537544Y-30079852D02*
X43632782Y-30079852D01*
X42299449Y-29079852D02*
X42775639Y-29079852D01*
X42775639Y-29079852D02*
X42823258Y-29556042D01*
X42823258Y-29556042D02*
X42775639Y-29508423D01*
X42775639Y-29508423D02*
X42680401Y-29460804D01*
X42680401Y-29460804D02*
X42442306Y-29460804D01*
X42442306Y-29460804D02*
X42347068Y-29508423D01*
X42347068Y-29508423D02*
X42299449Y-29556042D01*
X42299449Y-29556042D02*
X42251830Y-29651280D01*
X42251830Y-29651280D02*
X42251830Y-29889375D01*
X42251830Y-29889375D02*
X42299449Y-29984613D01*
X42299449Y-29984613D02*
X42347068Y-30032233D01*
X42347068Y-30032233D02*
X42442306Y-30079852D01*
X42442306Y-30079852D02*
X42680401Y-30079852D01*
X42680401Y-30079852D02*
X42775639Y-30032233D01*
X42775639Y-30032233D02*
X42823258Y-29984613D01*
X65487989Y-22805661D02*
X66202274Y-22805661D01*
X66202274Y-22805661D02*
X66345131Y-22758042D01*
X66345131Y-22758042D02*
X66440370Y-22662804D01*
X66440370Y-22662804D02*
X66487989Y-22519947D01*
X66487989Y-22519947D02*
X66487989Y-22424709D01*
X65487989Y-23710423D02*
X65487989Y-23519947D01*
X65487989Y-23519947D02*
X65535608Y-23424709D01*
X65535608Y-23424709D02*
X65583227Y-23377090D01*
X65583227Y-23377090D02*
X65726084Y-23281852D01*
X65726084Y-23281852D02*
X65916560Y-23234233D01*
X65916560Y-23234233D02*
X66297512Y-23234233D01*
X66297512Y-23234233D02*
X66392750Y-23281852D01*
X66392750Y-23281852D02*
X66440370Y-23329471D01*
X66440370Y-23329471D02*
X66487989Y-23424709D01*
X66487989Y-23424709D02*
X66487989Y-23615185D01*
X66487989Y-23615185D02*
X66440370Y-23710423D01*
X66440370Y-23710423D02*
X66392750Y-23758042D01*
X66392750Y-23758042D02*
X66297512Y-23805661D01*
X66297512Y-23805661D02*
X66059417Y-23805661D01*
X66059417Y-23805661D02*
X65964179Y-23758042D01*
X65964179Y-23758042D02*
X65916560Y-23710423D01*
X65916560Y-23710423D02*
X65868941Y-23615185D01*
X65868941Y-23615185D02*
X65868941Y-23424709D01*
X65868941Y-23424709D02*
X65916560Y-23329471D01*
X65916560Y-23329471D02*
X65964179Y-23281852D01*
X65964179Y-23281852D02*
X66059417Y-23234233D01*
X59167857Y-36259581D02*
X59215476Y-36307201D01*
X59215476Y-36307201D02*
X59358333Y-36354820D01*
X59358333Y-36354820D02*
X59453571Y-36354820D01*
X59453571Y-36354820D02*
X59596428Y-36307201D01*
X59596428Y-36307201D02*
X59691666Y-36211962D01*
X59691666Y-36211962D02*
X59739285Y-36116724D01*
X59739285Y-36116724D02*
X59786904Y-35926248D01*
X59786904Y-35926248D02*
X59786904Y-35783391D01*
X59786904Y-35783391D02*
X59739285Y-35592915D01*
X59739285Y-35592915D02*
X59691666Y-35497677D01*
X59691666Y-35497677D02*
X59596428Y-35402439D01*
X59596428Y-35402439D02*
X59453571Y-35354820D01*
X59453571Y-35354820D02*
X59358333Y-35354820D01*
X59358333Y-35354820D02*
X59215476Y-35402439D01*
X59215476Y-35402439D02*
X59167857Y-35450058D01*
X58215476Y-36354820D02*
X58786904Y-36354820D01*
X58501190Y-36354820D02*
X58501190Y-35354820D01*
X58501190Y-35354820D02*
X58596428Y-35497677D01*
X58596428Y-35497677D02*
X58691666Y-35592915D01*
X58691666Y-35592915D02*
X58786904Y-35640534D01*
X57644047Y-35783391D02*
X57739285Y-35735772D01*
X57739285Y-35735772D02*
X57786904Y-35688153D01*
X57786904Y-35688153D02*
X57834523Y-35592915D01*
X57834523Y-35592915D02*
X57834523Y-35545296D01*
X57834523Y-35545296D02*
X57786904Y-35450058D01*
X57786904Y-35450058D02*
X57739285Y-35402439D01*
X57739285Y-35402439D02*
X57644047Y-35354820D01*
X57644047Y-35354820D02*
X57453571Y-35354820D01*
X57453571Y-35354820D02*
X57358333Y-35402439D01*
X57358333Y-35402439D02*
X57310714Y-35450058D01*
X57310714Y-35450058D02*
X57263095Y-35545296D01*
X57263095Y-35545296D02*
X57263095Y-35592915D01*
X57263095Y-35592915D02*
X57310714Y-35688153D01*
X57310714Y-35688153D02*
X57358333Y-35735772D01*
X57358333Y-35735772D02*
X57453571Y-35783391D01*
X57453571Y-35783391D02*
X57644047Y-35783391D01*
X57644047Y-35783391D02*
X57739285Y-35831010D01*
X57739285Y-35831010D02*
X57786904Y-35878629D01*
X57786904Y-35878629D02*
X57834523Y-35973867D01*
X57834523Y-35973867D02*
X57834523Y-36164343D01*
X57834523Y-36164343D02*
X57786904Y-36259581D01*
X57786904Y-36259581D02*
X57739285Y-36307201D01*
X57739285Y-36307201D02*
X57644047Y-36354820D01*
X57644047Y-36354820D02*
X57453571Y-36354820D01*
X57453571Y-36354820D02*
X57358333Y-36307201D01*
X57358333Y-36307201D02*
X57310714Y-36259581D01*
X57310714Y-36259581D02*
X57263095Y-36164343D01*
X57263095Y-36164343D02*
X57263095Y-35973867D01*
X57263095Y-35973867D02*
X57310714Y-35878629D01*
X57310714Y-35878629D02*
X57358333Y-35831010D01*
X57358333Y-35831010D02*
X57453571Y-35783391D01*
X51583975Y-41580464D02*
X51819677Y-41344762D01*
X52190066Y-41715151D02*
X51482959Y-41008044D01*
X51482959Y-41008044D02*
X51146242Y-41344762D01*
X50977883Y-42186556D02*
X50910539Y-42321243D01*
X50910539Y-42321243D02*
X50910539Y-42388586D01*
X50910539Y-42388586D02*
X50944211Y-42489602D01*
X50944211Y-42489602D02*
X51045226Y-42590617D01*
X51045226Y-42590617D02*
X51146242Y-42624289D01*
X51146242Y-42624289D02*
X51213585Y-42624289D01*
X51213585Y-42624289D02*
X51314600Y-42590617D01*
X51314600Y-42590617D02*
X51583974Y-42321243D01*
X51583974Y-42321243D02*
X50876868Y-41614136D01*
X50876868Y-41614136D02*
X50641165Y-41849838D01*
X50641165Y-41849838D02*
X50607494Y-41950854D01*
X50607494Y-41950854D02*
X50607494Y-42018197D01*
X50607494Y-42018197D02*
X50641165Y-42119212D01*
X50641165Y-42119212D02*
X50708509Y-42186556D01*
X50708509Y-42186556D02*
X50809524Y-42220228D01*
X50809524Y-42220228D02*
X50876868Y-42220228D01*
X50876868Y-42220228D02*
X50977883Y-42186556D01*
X50977883Y-42186556D02*
X51213585Y-41950854D01*
X50506478Y-43398739D02*
X50910539Y-42994678D01*
X50708509Y-43196708D02*
X50001402Y-42489602D01*
X50001402Y-42489602D02*
X50169761Y-42523273D01*
X50169761Y-42523273D02*
X50304448Y-42523273D01*
X50304448Y-42523273D02*
X50405463Y-42489602D01*
X61183975Y-40980464D02*
X61419677Y-40744762D01*
X61790066Y-41115151D02*
X61082959Y-40408044D01*
X61082959Y-40408044D02*
X60746242Y-40744762D01*
X60577883Y-41586556D02*
X60510539Y-41721243D01*
X60510539Y-41721243D02*
X60510539Y-41788586D01*
X60510539Y-41788586D02*
X60544211Y-41889602D01*
X60544211Y-41889602D02*
X60645226Y-41990617D01*
X60645226Y-41990617D02*
X60746242Y-42024289D01*
X60746242Y-42024289D02*
X60813585Y-42024289D01*
X60813585Y-42024289D02*
X60914600Y-41990617D01*
X60914600Y-41990617D02*
X61183974Y-41721243D01*
X61183974Y-41721243D02*
X60476868Y-41014136D01*
X60476868Y-41014136D02*
X60241165Y-41249838D01*
X60241165Y-41249838D02*
X60207494Y-41350854D01*
X60207494Y-41350854D02*
X60207494Y-41418197D01*
X60207494Y-41418197D02*
X60241165Y-41519212D01*
X60241165Y-41519212D02*
X60308509Y-41586556D01*
X60308509Y-41586556D02*
X60409524Y-41620228D01*
X60409524Y-41620228D02*
X60476868Y-41620228D01*
X60476868Y-41620228D02*
X60577883Y-41586556D01*
X60577883Y-41586556D02*
X60813585Y-41350854D01*
X59870776Y-41754915D02*
X59803433Y-41754915D01*
X59803433Y-41754915D02*
X59702417Y-41788586D01*
X59702417Y-41788586D02*
X59534059Y-41956945D01*
X59534059Y-41956945D02*
X59500387Y-42057960D01*
X59500387Y-42057960D02*
X59500387Y-42125304D01*
X59500387Y-42125304D02*
X59534059Y-42226319D01*
X59534059Y-42226319D02*
X59601402Y-42293663D01*
X59601402Y-42293663D02*
X59736089Y-42361006D01*
X59736089Y-42361006D02*
X60544211Y-42361006D01*
X60544211Y-42361006D02*
X60106478Y-42798739D01*
%TO.C,MBAT_IN_12V1*%
D11*
X54502713Y-87552807D02*
G75*
G02*
X55264713Y-87552807I381000J0D01*
G01*
X55264713Y-87552807D02*
G75*
G02*
X54502713Y-87552807I-381000J0D01*
G01*
%TO.C,J3*%
X102580000Y-29104601D02*
G75*
G02*
X102580000Y-29866601I0J-381000D01*
G01*
X102580000Y-29866601D02*
G75*
G02*
X102580000Y-29104601I0J381000D01*
G01*
%TO.C,TP6*%
D12*
X97050000Y-41050000D02*
X97050000Y-42950000D01*
X97050000Y-42950000D02*
X98950000Y-42950000D01*
X98950000Y-41050000D02*
X97050000Y-41050000D01*
X98950000Y-42950000D02*
X98950000Y-41050000D01*
%TO.C,C19*%
X60611252Y-30765001D02*
X59188748Y-30765001D01*
X60611252Y-32585001D02*
X59188748Y-32585001D01*
%TO.C,C17*%
X62388748Y-35565001D02*
X63811252Y-35565001D01*
X62388748Y-37385001D02*
X63811252Y-37385001D01*
%TO.C,TP7*%
X92050000Y-41079099D02*
X92050000Y-42979099D01*
X92050000Y-42979099D02*
X93950000Y-42979099D01*
X93950000Y-41079099D02*
X92050000Y-41079099D01*
X93950000Y-42979099D02*
X93950000Y-41079099D01*
%TO.C,C14*%
X49811252Y-35565001D02*
X48388748Y-35565001D01*
X49811252Y-37385001D02*
X48388748Y-37385001D01*
%TO.C,C15*%
X51588748Y-33165001D02*
X53011252Y-33165001D01*
X51588748Y-34985001D02*
X53011252Y-34985001D01*
%TO.C,C25*%
X96988748Y-54565001D02*
X98411252Y-54565001D01*
X96988748Y-56385001D02*
X98411252Y-56385001D01*
%TO.C,C16*%
X49811252Y-30765001D02*
X48388748Y-30765001D01*
X49811252Y-32585001D02*
X48388748Y-32585001D01*
%TO.C,J5*%
X44165000Y-20765001D02*
X44165000Y-29885001D01*
X44165000Y-29885001D02*
X46948233Y-29885001D01*
X45165000Y-19765001D02*
X44165000Y-20765001D01*
X49590000Y-29885001D02*
X48251767Y-29885001D01*
X53035000Y-19765001D02*
X45165000Y-19765001D01*
X54035000Y-20765001D02*
X53035000Y-19765001D01*
X54035000Y-29885001D02*
X51610000Y-29885001D01*
X54035000Y-29885001D02*
X54035000Y-20765001D01*
%TO.C,J6*%
X54965000Y-20765001D02*
X54965000Y-29885001D01*
X54965000Y-29885001D02*
X57748233Y-29885001D01*
X55965000Y-19765001D02*
X54965000Y-20765001D01*
X60390000Y-29885001D02*
X59051767Y-29885001D01*
X63835000Y-19765001D02*
X55965000Y-19765001D01*
X64835000Y-20765001D02*
X63835000Y-19765001D01*
X64835000Y-29885001D02*
X62410000Y-29885001D01*
X64835000Y-29885001D02*
X64835000Y-20765001D01*
%TO.C,C18*%
X60611252Y-33140001D02*
X59188748Y-33140001D01*
X60611252Y-34960001D02*
X59188748Y-34960001D01*
%TO.C,FB1*%
X48465928Y-40822139D02*
X49647138Y-39640929D01*
X49752862Y-42109073D02*
X50934072Y-40927863D01*
%TO.C,FB2*%
X58065928Y-40222139D02*
X59247138Y-39040929D01*
X59352862Y-41509073D02*
X60534072Y-40327863D01*
%TD*%
M02*
