%TF.GenerationSoftware,KiCad,Pcbnew,10.0.4*%
%TF.CreationDate,2026-06-30T13:37:44-05:00*%
%TF.ProjectId,DataLogger2025,44617461-4c6f-4676-9765-72323032352e,1*%
%TF.SameCoordinates,Original*%
%TF.FileFunction,Soldermask,Top*%
%TF.FilePolarity,Negative*%
%FSLAX46Y46*%
G04 Gerber Fmt 4.6, Leading zero omitted, Abs format (unit mm)*
G04 Created by KiCad (PCBNEW 10.0.4) date 2026-06-30 13:37:44*
%MOMM*%
%LPD*%
G01*
G04 APERTURE LIST*
G04 Aperture macros list*
%AMRoundRect*
0 Rectangle with rounded corners*
0 $1 Rounding radius*
0 $2 $3 $4 $5 $6 $7 $8 $9 X,Y pos of 4 corners*
0 Add a 4 corners polygon primitive as box body*
4,1,4,$2,$3,$4,$5,$6,$7,$8,$9,$2,$3,0*
0 Add four circle primitives for the rounded corners*
1,1,$1+$1,$2,$3*
1,1,$1+$1,$4,$5*
1,1,$1+$1,$6,$7*
1,1,$1+$1,$8,$9*
0 Add four rect primitives between the rounded corners*
20,1,$1+$1,$2,$3,$4,$5,0*
20,1,$1+$1,$4,$5,$6,$7,0*
20,1,$1+$1,$6,$7,$8,$9,0*
20,1,$1+$1,$8,$9,$2,$3,0*%
%AMRotRect*
0 Rectangle, with rotation*
0 The origin of the aperture is its center*
0 $1 length*
0 $2 width*
0 $3 Rotation angle, in degrees counterclockwise*
0 Add horizontal line*
21,1,$1,$2,0,0,$3*%
G04 Aperture macros list end*
%ADD10C,0.150000*%
%ADD11C,0.300000*%
%ADD12C,0.400000*%
%ADD13C,0.010000*%
%ADD14RoundRect,0.250000X-0.625000X0.400000X-0.625000X-0.400000X0.625000X-0.400000X0.625000X0.400000X0*%
%ADD15C,3.048000*%
%ADD16C,1.778800*%
%ADD17C,1.400000*%
%ADD18RoundRect,0.250000X0.400000X0.625000X-0.400000X0.625000X-0.400000X-0.625000X0.400000X-0.625000X0*%
%ADD19RoundRect,0.250000X0.650000X-0.412500X0.650000X0.412500X-0.650000X0.412500X-0.650000X-0.412500X0*%
%ADD20RoundRect,0.250000X-1.000000X-0.900000X1.000000X-0.900000X1.000000X0.900000X-1.000000X0.900000X0*%
%ADD21R,1.500000X1.500000*%
%ADD22RoundRect,0.250000X0.000000X0.777817X-0.777817X0.000000X0.000000X-0.777817X0.777817X0.000000X0*%
%ADD23C,1.600000*%
%ADD24RoundRect,0.250000X0.625000X-0.400000X0.625000X0.400000X-0.625000X0.400000X-0.625000X-0.400000X0*%
%ADD25RoundRect,0.102000X-0.754000X-0.754000X0.754000X-0.754000X0.754000X0.754000X-0.754000X0.754000X0*%
%ADD26C,1.712000*%
%ADD27C,2.604000*%
%ADD28RoundRect,0.250000X-0.412500X-0.650000X0.412500X-0.650000X0.412500X0.650000X-0.412500X0.650000X0*%
%ADD29R,1.709999X1.709999*%
%ADD30C,1.709999*%
%ADD31RoundRect,0.102000X-0.600000X-0.600000X0.600000X-0.600000X0.600000X0.600000X-0.600000X0.600000X0*%
%ADD32RoundRect,0.102000X0.750000X-0.400000X0.750000X0.400000X-0.750000X0.400000X-0.750000X-0.400000X0*%
%ADD33RoundRect,0.102000X0.950000X-0.700000X0.950000X0.700000X-0.950000X0.700000X-0.950000X-0.700000X0*%
%ADD34RoundRect,0.102000X0.700000X-0.900000X0.700000X0.900000X-0.700000X0.900000X-0.700000X-0.900000X0*%
%ADD35RoundRect,0.250000X-0.650000X0.412500X-0.650000X-0.412500X0.650000X-0.412500X0.650000X0.412500X0*%
%ADD36RotRect,1.500000X1.500000X45.000000*%
%ADD37RoundRect,0.250000X0.777817X0.000000X0.000000X0.777817X-0.777817X0.000000X0.000000X-0.777817X0*%
%ADD38R,1.143000X1.092200*%
%ADD39RoundRect,0.250000X1.500000X0.900000X-1.500000X0.900000X-1.500000X-0.900000X1.500000X-0.900000X0*%
%ADD40RoundRect,0.102000X-0.400000X0.400000X-0.400000X-0.400000X0.400000X-0.400000X0.400000X0.400000X0*%
%ADD41RoundRect,0.250000X-0.550000X0.550000X-0.550000X-0.550000X0.550000X-0.550000X0.550000X0.550000X0*%
%ADD42RoundRect,0.250000X0.550000X-0.550000X0.550000X0.550000X-0.550000X0.550000X-0.550000X-0.550000X0*%
%ADD43O,1.152400X2.352400*%
%ADD44O,1.152400X1.952400*%
%ADD45RoundRect,0.102000X-0.750000X-0.450000X0.750000X-0.450000X0.750000X0.450000X-0.750000X0.450000X0*%
%ADD46RoundRect,0.102000X-0.450000X-0.750000X0.450000X-0.750000X0.450000X0.750000X-0.450000X0.750000X0*%
%ADD47RoundRect,0.102000X-0.450000X-0.450000X0.450000X-0.450000X0.450000X0.450000X-0.450000X0.450000X0*%
%ADD48C,3.200000*%
%ADD49RoundRect,0.250000X-0.777817X0.000000X0.000000X-0.777817X0.777817X0.000000X0.000000X0.777817X0*%
%ADD50RoundRect,0.250000X0.412500X0.650000X-0.412500X0.650000X-0.412500X-0.650000X0.412500X-0.650000X0*%
%ADD51RoundRect,0.150000X0.150000X-0.825000X0.150000X0.825000X-0.150000X0.825000X-0.150000X-0.825000X0*%
%ADD52R,0.876300X0.558800*%
%ADD53R,1.244600X0.558800*%
%ADD54R,1.000000X1.000000*%
%ADD55RoundRect,0.102000X-0.750000X-0.750000X0.750000X-0.750000X0.750000X0.750000X-0.750000X0.750000X0*%
%ADD56C,1.704000*%
%ADD57R,0.457200X0.812800*%
%ADD58RoundRect,0.250000X-0.167938X0.751301X-0.751301X0.167938X0.167938X-0.751301X0.751301X-0.167938X0*%
%ADD59R,0.900000X1.000000*%
%ADD60C,3.000000*%
%ADD61RoundRect,0.250001X0.499999X0.759999X-0.499999X0.759999X-0.499999X-0.759999X0.499999X-0.759999X0*%
%ADD62O,1.500000X2.020000*%
G04 APERTURE END LIST*
D10*
X90007200Y-104005800D02*
X198007200Y-104005800D01*
X198007200Y-136005800D01*
X90007200Y-136005800D01*
X90007200Y-104005800D01*
X10000000Y-10000000D02*
X200007200Y-10000000D01*
X200007200Y-138005800D01*
X10000000Y-138005800D01*
X10000000Y-10000000D01*
X12000000Y-12000000D02*
X198007200Y-12000000D01*
X198007200Y-136005800D01*
X12000000Y-136005800D01*
X12000000Y-12000000D01*
X60000000Y-12000000D02*
X60000000Y-10000000D01*
X110000000Y-12000000D02*
X110000000Y-10000000D01*
X160000000Y-12000000D02*
X160000000Y-10000000D01*
X36089160Y-11593604D02*
X35346303Y-11593604D01*
X35717731Y-11593604D02*
X35717731Y-10293604D01*
X35717731Y-10293604D02*
X35593922Y-10479319D01*
X35593922Y-10479319D02*
X35470112Y-10603128D01*
X35470112Y-10603128D02*
X35346303Y-10665033D01*
X85346303Y-10417414D02*
X85408207Y-10355509D01*
X85408207Y-10355509D02*
X85532017Y-10293604D01*
X85532017Y-10293604D02*
X85841541Y-10293604D01*
X85841541Y-10293604D02*
X85965350Y-10355509D01*
X85965350Y-10355509D02*
X86027255Y-10417414D01*
X86027255Y-10417414D02*
X86089160Y-10541223D01*
X86089160Y-10541223D02*
X86089160Y-10665033D01*
X86089160Y-10665033D02*
X86027255Y-10850747D01*
X86027255Y-10850747D02*
X85284398Y-11593604D01*
X85284398Y-11593604D02*
X86089160Y-11593604D01*
X135284398Y-10293604D02*
X136089160Y-10293604D01*
X136089160Y-10293604D02*
X135655826Y-10788842D01*
X135655826Y-10788842D02*
X135841541Y-10788842D01*
X135841541Y-10788842D02*
X135965350Y-10850747D01*
X135965350Y-10850747D02*
X136027255Y-10912652D01*
X136027255Y-10912652D02*
X136089160Y-11036461D01*
X136089160Y-11036461D02*
X136089160Y-11345985D01*
X136089160Y-11345985D02*
X136027255Y-11469795D01*
X136027255Y-11469795D02*
X135965350Y-11531700D01*
X135965350Y-11531700D02*
X135841541Y-11593604D01*
X135841541Y-11593604D02*
X135470112Y-11593604D01*
X135470112Y-11593604D02*
X135346303Y-11531700D01*
X135346303Y-11531700D02*
X135284398Y-11469795D01*
X185965350Y-10726938D02*
X185965350Y-11593604D01*
X185655826Y-10231700D02*
X185346303Y-11160271D01*
X185346303Y-11160271D02*
X186151064Y-11160271D01*
X60000000Y-136005800D02*
X60000000Y-138005800D01*
X110000000Y-136005800D02*
X110000000Y-138005800D01*
X160000000Y-136005800D02*
X160000000Y-138005800D01*
X36089160Y-137599404D02*
X35346303Y-137599404D01*
X35717731Y-137599404D02*
X35717731Y-136299404D01*
X35717731Y-136299404D02*
X35593922Y-136485119D01*
X35593922Y-136485119D02*
X35470112Y-136608928D01*
X35470112Y-136608928D02*
X35346303Y-136670833D01*
X85346303Y-136423214D02*
X85408207Y-136361309D01*
X85408207Y-136361309D02*
X85532017Y-136299404D01*
X85532017Y-136299404D02*
X85841541Y-136299404D01*
X85841541Y-136299404D02*
X85965350Y-136361309D01*
X85965350Y-136361309D02*
X86027255Y-136423214D01*
X86027255Y-136423214D02*
X86089160Y-136547023D01*
X86089160Y-136547023D02*
X86089160Y-136670833D01*
X86089160Y-136670833D02*
X86027255Y-136856547D01*
X86027255Y-136856547D02*
X85284398Y-137599404D01*
X85284398Y-137599404D02*
X86089160Y-137599404D01*
X135284398Y-136299404D02*
X136089160Y-136299404D01*
X136089160Y-136299404D02*
X135655826Y-136794642D01*
X135655826Y-136794642D02*
X135841541Y-136794642D01*
X135841541Y-136794642D02*
X135965350Y-136856547D01*
X135965350Y-136856547D02*
X136027255Y-136918452D01*
X136027255Y-136918452D02*
X136089160Y-137042261D01*
X136089160Y-137042261D02*
X136089160Y-137351785D01*
X136089160Y-137351785D02*
X136027255Y-137475595D01*
X136027255Y-137475595D02*
X135965350Y-137537500D01*
X135965350Y-137537500D02*
X135841541Y-137599404D01*
X135841541Y-137599404D02*
X135470112Y-137599404D01*
X135470112Y-137599404D02*
X135346303Y-137537500D01*
X135346303Y-137537500D02*
X135284398Y-137475595D01*
X185965350Y-136732738D02*
X185965350Y-137599404D01*
X185655826Y-136237500D02*
X185346303Y-137166071D01*
X185346303Y-137166071D02*
X186151064Y-137166071D01*
X10000000Y-60000000D02*
X12000000Y-60000000D01*
X10000000Y-110000000D02*
X12000000Y-110000000D01*
X10690476Y-35222176D02*
X11309523Y-35222176D01*
X10566666Y-35593604D02*
X10999999Y-34293604D01*
X10999999Y-34293604D02*
X11433333Y-35593604D01*
X11092857Y-84912652D02*
X11278571Y-84974557D01*
X11278571Y-84974557D02*
X11340476Y-85036461D01*
X11340476Y-85036461D02*
X11402380Y-85160271D01*
X11402380Y-85160271D02*
X11402380Y-85345985D01*
X11402380Y-85345985D02*
X11340476Y-85469795D01*
X11340476Y-85469795D02*
X11278571Y-85531700D01*
X11278571Y-85531700D02*
X11154761Y-85593604D01*
X11154761Y-85593604D02*
X10659523Y-85593604D01*
X10659523Y-85593604D02*
X10659523Y-84293604D01*
X10659523Y-84293604D02*
X11092857Y-84293604D01*
X11092857Y-84293604D02*
X11216666Y-84355509D01*
X11216666Y-84355509D02*
X11278571Y-84417414D01*
X11278571Y-84417414D02*
X11340476Y-84541223D01*
X11340476Y-84541223D02*
X11340476Y-84665033D01*
X11340476Y-84665033D02*
X11278571Y-84788842D01*
X11278571Y-84788842D02*
X11216666Y-84850747D01*
X11216666Y-84850747D02*
X11092857Y-84912652D01*
X11092857Y-84912652D02*
X10659523Y-84912652D01*
X11402380Y-135469795D02*
X11340476Y-135531700D01*
X11340476Y-135531700D02*
X11154761Y-135593604D01*
X11154761Y-135593604D02*
X11030952Y-135593604D01*
X11030952Y-135593604D02*
X10845238Y-135531700D01*
X10845238Y-135531700D02*
X10721428Y-135407890D01*
X10721428Y-135407890D02*
X10659523Y-135284080D01*
X10659523Y-135284080D02*
X10597619Y-135036461D01*
X10597619Y-135036461D02*
X10597619Y-134850747D01*
X10597619Y-134850747D02*
X10659523Y-134603128D01*
X10659523Y-134603128D02*
X10721428Y-134479319D01*
X10721428Y-134479319D02*
X10845238Y-134355509D01*
X10845238Y-134355509D02*
X11030952Y-134293604D01*
X11030952Y-134293604D02*
X11154761Y-134293604D01*
X11154761Y-134293604D02*
X11340476Y-134355509D01*
X11340476Y-134355509D02*
X11402380Y-134417414D01*
X200007200Y-60000000D02*
X198007200Y-60000000D01*
X200007200Y-110000000D02*
X198007200Y-110000000D01*
X198697676Y-35222176D02*
X199316723Y-35222176D01*
X198573866Y-35593604D02*
X199007199Y-34293604D01*
X199007199Y-34293604D02*
X199440533Y-35593604D01*
X199100057Y-84912652D02*
X199285771Y-84974557D01*
X199285771Y-84974557D02*
X199347676Y-85036461D01*
X199347676Y-85036461D02*
X199409580Y-85160271D01*
X199409580Y-85160271D02*
X199409580Y-85345985D01*
X199409580Y-85345985D02*
X199347676Y-85469795D01*
X199347676Y-85469795D02*
X199285771Y-85531700D01*
X199285771Y-85531700D02*
X199161961Y-85593604D01*
X199161961Y-85593604D02*
X198666723Y-85593604D01*
X198666723Y-85593604D02*
X198666723Y-84293604D01*
X198666723Y-84293604D02*
X199100057Y-84293604D01*
X199100057Y-84293604D02*
X199223866Y-84355509D01*
X199223866Y-84355509D02*
X199285771Y-84417414D01*
X199285771Y-84417414D02*
X199347676Y-84541223D01*
X199347676Y-84541223D02*
X199347676Y-84665033D01*
X199347676Y-84665033D02*
X199285771Y-84788842D01*
X199285771Y-84788842D02*
X199223866Y-84850747D01*
X199223866Y-84850747D02*
X199100057Y-84912652D01*
X199100057Y-84912652D02*
X198666723Y-84912652D01*
X199409580Y-135469795D02*
X199347676Y-135531700D01*
X199347676Y-135531700D02*
X199161961Y-135593604D01*
X199161961Y-135593604D02*
X199038152Y-135593604D01*
X199038152Y-135593604D02*
X198852438Y-135531700D01*
X198852438Y-135531700D02*
X198728628Y-135407890D01*
X198728628Y-135407890D02*
X198666723Y-135284080D01*
X198666723Y-135284080D02*
X198604819Y-135036461D01*
X198604819Y-135036461D02*
X198604819Y-134850747D01*
X198604819Y-134850747D02*
X198666723Y-134603128D01*
X198666723Y-134603128D02*
X198728628Y-134479319D01*
X198728628Y-134479319D02*
X198852438Y-134355509D01*
X198852438Y-134355509D02*
X199038152Y-134293604D01*
X199038152Y-134293604D02*
X199161961Y-134293604D01*
X199161961Y-134293604D02*
X199347676Y-134355509D01*
X199347676Y-134355509D02*
X199409580Y-134417414D01*
X113463026Y-131791928D02*
X113463026Y-130291928D01*
X113463026Y-130291928D02*
X113820169Y-130291928D01*
X113820169Y-130291928D02*
X114034455Y-130363357D01*
X114034455Y-130363357D02*
X114177312Y-130506214D01*
X114177312Y-130506214D02*
X114248741Y-130649071D01*
X114248741Y-130649071D02*
X114320169Y-130934785D01*
X114320169Y-130934785D02*
X114320169Y-131149071D01*
X114320169Y-131149071D02*
X114248741Y-131434785D01*
X114248741Y-131434785D02*
X114177312Y-131577642D01*
X114177312Y-131577642D02*
X114034455Y-131720500D01*
X114034455Y-131720500D02*
X113820169Y-131791928D01*
X113820169Y-131791928D02*
X113463026Y-131791928D01*
X115605884Y-131791928D02*
X115605884Y-131006214D01*
X115605884Y-131006214D02*
X115534455Y-130863357D01*
X115534455Y-130863357D02*
X115391598Y-130791928D01*
X115391598Y-130791928D02*
X115105884Y-130791928D01*
X115105884Y-130791928D02*
X114963026Y-130863357D01*
X115605884Y-131720500D02*
X115463026Y-131791928D01*
X115463026Y-131791928D02*
X115105884Y-131791928D01*
X115105884Y-131791928D02*
X114963026Y-131720500D01*
X114963026Y-131720500D02*
X114891598Y-131577642D01*
X114891598Y-131577642D02*
X114891598Y-131434785D01*
X114891598Y-131434785D02*
X114963026Y-131291928D01*
X114963026Y-131291928D02*
X115105884Y-131220500D01*
X115105884Y-131220500D02*
X115463026Y-131220500D01*
X115463026Y-131220500D02*
X115605884Y-131149071D01*
X116105884Y-130791928D02*
X116677312Y-130791928D01*
X116320169Y-130291928D02*
X116320169Y-131577642D01*
X116320169Y-131577642D02*
X116391598Y-131720500D01*
X116391598Y-131720500D02*
X116534455Y-131791928D01*
X116534455Y-131791928D02*
X116677312Y-131791928D01*
X117748741Y-131720500D02*
X117605884Y-131791928D01*
X117605884Y-131791928D02*
X117320170Y-131791928D01*
X117320170Y-131791928D02*
X117177312Y-131720500D01*
X117177312Y-131720500D02*
X117105884Y-131577642D01*
X117105884Y-131577642D02*
X117105884Y-131006214D01*
X117105884Y-131006214D02*
X117177312Y-130863357D01*
X117177312Y-130863357D02*
X117320170Y-130791928D01*
X117320170Y-130791928D02*
X117605884Y-130791928D01*
X117605884Y-130791928D02*
X117748741Y-130863357D01*
X117748741Y-130863357D02*
X117820170Y-131006214D01*
X117820170Y-131006214D02*
X117820170Y-131149071D01*
X117820170Y-131149071D02*
X117105884Y-131291928D01*
X118463026Y-131649071D02*
X118534455Y-131720500D01*
X118534455Y-131720500D02*
X118463026Y-131791928D01*
X118463026Y-131791928D02*
X118391598Y-131720500D01*
X118391598Y-131720500D02*
X118463026Y-131649071D01*
X118463026Y-131649071D02*
X118463026Y-131791928D01*
X118463026Y-130863357D02*
X118534455Y-130934785D01*
X118534455Y-130934785D02*
X118463026Y-131006214D01*
X118463026Y-131006214D02*
X118391598Y-130934785D01*
X118391598Y-130934785D02*
X118463026Y-130863357D01*
X118463026Y-130863357D02*
X118463026Y-131006214D01*
X90007200Y-132505800D02*
X198007200Y-132505800D01*
X91463026Y-134591928D02*
X91463026Y-133091928D01*
X92320169Y-134591928D02*
X91677312Y-133734785D01*
X92320169Y-133091928D02*
X91463026Y-133949071D01*
X92963026Y-134591928D02*
X92963026Y-133591928D01*
X92963026Y-133091928D02*
X92891598Y-133163357D01*
X92891598Y-133163357D02*
X92963026Y-133234785D01*
X92963026Y-133234785D02*
X93034455Y-133163357D01*
X93034455Y-133163357D02*
X92963026Y-133091928D01*
X92963026Y-133091928D02*
X92963026Y-133234785D01*
X94534455Y-134449071D02*
X94463027Y-134520500D01*
X94463027Y-134520500D02*
X94248741Y-134591928D01*
X94248741Y-134591928D02*
X94105884Y-134591928D01*
X94105884Y-134591928D02*
X93891598Y-134520500D01*
X93891598Y-134520500D02*
X93748741Y-134377642D01*
X93748741Y-134377642D02*
X93677312Y-134234785D01*
X93677312Y-134234785D02*
X93605884Y-133949071D01*
X93605884Y-133949071D02*
X93605884Y-133734785D01*
X93605884Y-133734785D02*
X93677312Y-133449071D01*
X93677312Y-133449071D02*
X93748741Y-133306214D01*
X93748741Y-133306214D02*
X93891598Y-133163357D01*
X93891598Y-133163357D02*
X94105884Y-133091928D01*
X94105884Y-133091928D02*
X94248741Y-133091928D01*
X94248741Y-133091928D02*
X94463027Y-133163357D01*
X94463027Y-133163357D02*
X94534455Y-133234785D01*
X95820170Y-134591928D02*
X95820170Y-133806214D01*
X95820170Y-133806214D02*
X95748741Y-133663357D01*
X95748741Y-133663357D02*
X95605884Y-133591928D01*
X95605884Y-133591928D02*
X95320170Y-133591928D01*
X95320170Y-133591928D02*
X95177312Y-133663357D01*
X95820170Y-134520500D02*
X95677312Y-134591928D01*
X95677312Y-134591928D02*
X95320170Y-134591928D01*
X95320170Y-134591928D02*
X95177312Y-134520500D01*
X95177312Y-134520500D02*
X95105884Y-134377642D01*
X95105884Y-134377642D02*
X95105884Y-134234785D01*
X95105884Y-134234785D02*
X95177312Y-134091928D01*
X95177312Y-134091928D02*
X95320170Y-134020500D01*
X95320170Y-134020500D02*
X95677312Y-134020500D01*
X95677312Y-134020500D02*
X95820170Y-133949071D01*
X97177313Y-134591928D02*
X97177313Y-133091928D01*
X97177313Y-134520500D02*
X97034455Y-134591928D01*
X97034455Y-134591928D02*
X96748741Y-134591928D01*
X96748741Y-134591928D02*
X96605884Y-134520500D01*
X96605884Y-134520500D02*
X96534455Y-134449071D01*
X96534455Y-134449071D02*
X96463027Y-134306214D01*
X96463027Y-134306214D02*
X96463027Y-133877642D01*
X96463027Y-133877642D02*
X96534455Y-133734785D01*
X96534455Y-133734785D02*
X96605884Y-133663357D01*
X96605884Y-133663357D02*
X96748741Y-133591928D01*
X96748741Y-133591928D02*
X97034455Y-133591928D01*
X97034455Y-133591928D02*
X97177313Y-133663357D01*
X99034455Y-133806214D02*
X99534455Y-133806214D01*
X99748741Y-134591928D02*
X99034455Y-134591928D01*
X99034455Y-134591928D02*
X99034455Y-133091928D01*
X99034455Y-133091928D02*
X99748741Y-133091928D01*
X100391598Y-134449071D02*
X100463027Y-134520500D01*
X100463027Y-134520500D02*
X100391598Y-134591928D01*
X100391598Y-134591928D02*
X100320170Y-134520500D01*
X100320170Y-134520500D02*
X100391598Y-134449071D01*
X100391598Y-134449071D02*
X100391598Y-134591928D01*
X101105884Y-134591928D02*
X101105884Y-133091928D01*
X101105884Y-133091928D02*
X101463027Y-133091928D01*
X101463027Y-133091928D02*
X101677313Y-133163357D01*
X101677313Y-133163357D02*
X101820170Y-133306214D01*
X101820170Y-133306214D02*
X101891599Y-133449071D01*
X101891599Y-133449071D02*
X101963027Y-133734785D01*
X101963027Y-133734785D02*
X101963027Y-133949071D01*
X101963027Y-133949071D02*
X101891599Y-134234785D01*
X101891599Y-134234785D02*
X101820170Y-134377642D01*
X101820170Y-134377642D02*
X101677313Y-134520500D01*
X101677313Y-134520500D02*
X101463027Y-134591928D01*
X101463027Y-134591928D02*
X101105884Y-134591928D01*
X102605884Y-134449071D02*
X102677313Y-134520500D01*
X102677313Y-134520500D02*
X102605884Y-134591928D01*
X102605884Y-134591928D02*
X102534456Y-134520500D01*
X102534456Y-134520500D02*
X102605884Y-134449071D01*
X102605884Y-134449071D02*
X102605884Y-134591928D01*
X103248742Y-134163357D02*
X103963028Y-134163357D01*
X103105885Y-134591928D02*
X103605885Y-133091928D01*
X103605885Y-133091928D02*
X104105885Y-134591928D01*
X104605884Y-134449071D02*
X104677313Y-134520500D01*
X104677313Y-134520500D02*
X104605884Y-134591928D01*
X104605884Y-134591928D02*
X104534456Y-134520500D01*
X104534456Y-134520500D02*
X104605884Y-134449071D01*
X104605884Y-134449071D02*
X104605884Y-134591928D01*
X107248742Y-134591928D02*
X106391599Y-134591928D01*
X106820170Y-134591928D02*
X106820170Y-133091928D01*
X106820170Y-133091928D02*
X106677313Y-133306214D01*
X106677313Y-133306214D02*
X106534456Y-133449071D01*
X106534456Y-133449071D02*
X106391599Y-133520500D01*
X108177313Y-133091928D02*
X108320170Y-133091928D01*
X108320170Y-133091928D02*
X108463027Y-133163357D01*
X108463027Y-133163357D02*
X108534456Y-133234785D01*
X108534456Y-133234785D02*
X108605884Y-133377642D01*
X108605884Y-133377642D02*
X108677313Y-133663357D01*
X108677313Y-133663357D02*
X108677313Y-134020500D01*
X108677313Y-134020500D02*
X108605884Y-134306214D01*
X108605884Y-134306214D02*
X108534456Y-134449071D01*
X108534456Y-134449071D02*
X108463027Y-134520500D01*
X108463027Y-134520500D02*
X108320170Y-134591928D01*
X108320170Y-134591928D02*
X108177313Y-134591928D01*
X108177313Y-134591928D02*
X108034456Y-134520500D01*
X108034456Y-134520500D02*
X107963027Y-134449071D01*
X107963027Y-134449071D02*
X107891598Y-134306214D01*
X107891598Y-134306214D02*
X107820170Y-134020500D01*
X107820170Y-134020500D02*
X107820170Y-133663357D01*
X107820170Y-133663357D02*
X107891598Y-133377642D01*
X107891598Y-133377642D02*
X107963027Y-133234785D01*
X107963027Y-133234785D02*
X108034456Y-133163357D01*
X108034456Y-133163357D02*
X108177313Y-133091928D01*
X109320169Y-134449071D02*
X109391598Y-134520500D01*
X109391598Y-134520500D02*
X109320169Y-134591928D01*
X109320169Y-134591928D02*
X109248741Y-134520500D01*
X109248741Y-134520500D02*
X109320169Y-134449071D01*
X109320169Y-134449071D02*
X109320169Y-134591928D01*
X110320170Y-133091928D02*
X110463027Y-133091928D01*
X110463027Y-133091928D02*
X110605884Y-133163357D01*
X110605884Y-133163357D02*
X110677313Y-133234785D01*
X110677313Y-133234785D02*
X110748741Y-133377642D01*
X110748741Y-133377642D02*
X110820170Y-133663357D01*
X110820170Y-133663357D02*
X110820170Y-134020500D01*
X110820170Y-134020500D02*
X110748741Y-134306214D01*
X110748741Y-134306214D02*
X110677313Y-134449071D01*
X110677313Y-134449071D02*
X110605884Y-134520500D01*
X110605884Y-134520500D02*
X110463027Y-134591928D01*
X110463027Y-134591928D02*
X110320170Y-134591928D01*
X110320170Y-134591928D02*
X110177313Y-134520500D01*
X110177313Y-134520500D02*
X110105884Y-134449071D01*
X110105884Y-134449071D02*
X110034455Y-134306214D01*
X110034455Y-134306214D02*
X109963027Y-134020500D01*
X109963027Y-134020500D02*
X109963027Y-133663357D01*
X109963027Y-133663357D02*
X110034455Y-133377642D01*
X110034455Y-133377642D02*
X110105884Y-133234785D01*
X110105884Y-133234785D02*
X110177313Y-133163357D01*
X110177313Y-133163357D02*
X110320170Y-133091928D01*
X111463026Y-134449071D02*
X111534455Y-134520500D01*
X111534455Y-134520500D02*
X111463026Y-134591928D01*
X111463026Y-134591928D02*
X111391598Y-134520500D01*
X111391598Y-134520500D02*
X111463026Y-134449071D01*
X111463026Y-134449071D02*
X111463026Y-134591928D01*
X112820170Y-133591928D02*
X112820170Y-134591928D01*
X112463027Y-133020500D02*
X112105884Y-134091928D01*
X112105884Y-134091928D02*
X113034455Y-134091928D01*
X90007200Y-129505800D02*
X198007200Y-129505800D01*
D11*
X177418853Y-131784128D02*
X176918853Y-131069842D01*
X176561710Y-131784128D02*
X176561710Y-130284128D01*
X176561710Y-130284128D02*
X177133139Y-130284128D01*
X177133139Y-130284128D02*
X177275996Y-130355557D01*
X177275996Y-130355557D02*
X177347425Y-130426985D01*
X177347425Y-130426985D02*
X177418853Y-130569842D01*
X177418853Y-130569842D02*
X177418853Y-130784128D01*
X177418853Y-130784128D02*
X177347425Y-130926985D01*
X177347425Y-130926985D02*
X177275996Y-130998414D01*
X177275996Y-130998414D02*
X177133139Y-131069842D01*
X177133139Y-131069842D02*
X176561710Y-131069842D01*
X178633139Y-131712700D02*
X178490282Y-131784128D01*
X178490282Y-131784128D02*
X178204568Y-131784128D01*
X178204568Y-131784128D02*
X178061710Y-131712700D01*
X178061710Y-131712700D02*
X177990282Y-131569842D01*
X177990282Y-131569842D02*
X177990282Y-130998414D01*
X177990282Y-130998414D02*
X178061710Y-130855557D01*
X178061710Y-130855557D02*
X178204568Y-130784128D01*
X178204568Y-130784128D02*
X178490282Y-130784128D01*
X178490282Y-130784128D02*
X178633139Y-130855557D01*
X178633139Y-130855557D02*
X178704568Y-130998414D01*
X178704568Y-130998414D02*
X178704568Y-131141271D01*
X178704568Y-131141271D02*
X177990282Y-131284128D01*
X179204567Y-130784128D02*
X179561710Y-131784128D01*
X179561710Y-131784128D02*
X179918853Y-130784128D01*
X180490281Y-131641271D02*
X180561710Y-131712700D01*
X180561710Y-131712700D02*
X180490281Y-131784128D01*
X180490281Y-131784128D02*
X180418853Y-131712700D01*
X180418853Y-131712700D02*
X180490281Y-131641271D01*
X180490281Y-131641271D02*
X180490281Y-131784128D01*
X180490281Y-130855557D02*
X180561710Y-130926985D01*
X180561710Y-130926985D02*
X180490281Y-130998414D01*
X180490281Y-130998414D02*
X180418853Y-130926985D01*
X180418853Y-130926985D02*
X180490281Y-130855557D01*
X180490281Y-130855557D02*
X180490281Y-130998414D01*
X183133139Y-131784128D02*
X182275996Y-131784128D01*
X182704567Y-131784128D02*
X182704567Y-130284128D01*
X182704567Y-130284128D02*
X182561710Y-130498414D01*
X182561710Y-130498414D02*
X182418853Y-130641271D01*
X182418853Y-130641271D02*
X182275996Y-130712700D01*
D10*
X91391598Y-131720500D02*
X91605884Y-131791928D01*
X91605884Y-131791928D02*
X91963026Y-131791928D01*
X91963026Y-131791928D02*
X92105884Y-131720500D01*
X92105884Y-131720500D02*
X92177312Y-131649071D01*
X92177312Y-131649071D02*
X92248741Y-131506214D01*
X92248741Y-131506214D02*
X92248741Y-131363357D01*
X92248741Y-131363357D02*
X92177312Y-131220500D01*
X92177312Y-131220500D02*
X92105884Y-131149071D01*
X92105884Y-131149071D02*
X91963026Y-131077642D01*
X91963026Y-131077642D02*
X91677312Y-131006214D01*
X91677312Y-131006214D02*
X91534455Y-130934785D01*
X91534455Y-130934785D02*
X91463026Y-130863357D01*
X91463026Y-130863357D02*
X91391598Y-130720500D01*
X91391598Y-130720500D02*
X91391598Y-130577642D01*
X91391598Y-130577642D02*
X91463026Y-130434785D01*
X91463026Y-130434785D02*
X91534455Y-130363357D01*
X91534455Y-130363357D02*
X91677312Y-130291928D01*
X91677312Y-130291928D02*
X92034455Y-130291928D01*
X92034455Y-130291928D02*
X92248741Y-130363357D01*
X92891597Y-131791928D02*
X92891597Y-130791928D01*
X92891597Y-130291928D02*
X92820169Y-130363357D01*
X92820169Y-130363357D02*
X92891597Y-130434785D01*
X92891597Y-130434785D02*
X92963026Y-130363357D01*
X92963026Y-130363357D02*
X92891597Y-130291928D01*
X92891597Y-130291928D02*
X92891597Y-130434785D01*
X93463026Y-130791928D02*
X94248741Y-130791928D01*
X94248741Y-130791928D02*
X93463026Y-131791928D01*
X93463026Y-131791928D02*
X94248741Y-131791928D01*
X95391598Y-131720500D02*
X95248741Y-131791928D01*
X95248741Y-131791928D02*
X94963027Y-131791928D01*
X94963027Y-131791928D02*
X94820169Y-131720500D01*
X94820169Y-131720500D02*
X94748741Y-131577642D01*
X94748741Y-131577642D02*
X94748741Y-131006214D01*
X94748741Y-131006214D02*
X94820169Y-130863357D01*
X94820169Y-130863357D02*
X94963027Y-130791928D01*
X94963027Y-130791928D02*
X95248741Y-130791928D01*
X95248741Y-130791928D02*
X95391598Y-130863357D01*
X95391598Y-130863357D02*
X95463027Y-131006214D01*
X95463027Y-131006214D02*
X95463027Y-131149071D01*
X95463027Y-131149071D02*
X94748741Y-131291928D01*
X96105883Y-131649071D02*
X96177312Y-131720500D01*
X96177312Y-131720500D02*
X96105883Y-131791928D01*
X96105883Y-131791928D02*
X96034455Y-131720500D01*
X96034455Y-131720500D02*
X96105883Y-131649071D01*
X96105883Y-131649071D02*
X96105883Y-131791928D01*
X96105883Y-130863357D02*
X96177312Y-130934785D01*
X96177312Y-130934785D02*
X96105883Y-131006214D01*
X96105883Y-131006214D02*
X96034455Y-130934785D01*
X96034455Y-130934785D02*
X96105883Y-130863357D01*
X96105883Y-130863357D02*
X96105883Y-131006214D01*
X97891598Y-131363357D02*
X98605884Y-131363357D01*
X97748741Y-131791928D02*
X98248741Y-130291928D01*
X98248741Y-130291928D02*
X98748741Y-131791928D01*
X99963026Y-130291928D02*
X99248740Y-130291928D01*
X99248740Y-130291928D02*
X99177312Y-131006214D01*
X99177312Y-131006214D02*
X99248740Y-130934785D01*
X99248740Y-130934785D02*
X99391598Y-130863357D01*
X99391598Y-130863357D02*
X99748740Y-130863357D01*
X99748740Y-130863357D02*
X99891598Y-130934785D01*
X99891598Y-130934785D02*
X99963026Y-131006214D01*
X99963026Y-131006214D02*
X100034455Y-131149071D01*
X100034455Y-131149071D02*
X100034455Y-131506214D01*
X100034455Y-131506214D02*
X99963026Y-131649071D01*
X99963026Y-131649071D02*
X99891598Y-131720500D01*
X99891598Y-131720500D02*
X99748740Y-131791928D01*
X99748740Y-131791928D02*
X99391598Y-131791928D01*
X99391598Y-131791928D02*
X99248740Y-131720500D01*
X99248740Y-131720500D02*
X99177312Y-131649071D01*
X176463026Y-134591928D02*
X176463026Y-133091928D01*
X177820170Y-134591928D02*
X177820170Y-133091928D01*
X177820170Y-134520500D02*
X177677312Y-134591928D01*
X177677312Y-134591928D02*
X177391598Y-134591928D01*
X177391598Y-134591928D02*
X177248741Y-134520500D01*
X177248741Y-134520500D02*
X177177312Y-134449071D01*
X177177312Y-134449071D02*
X177105884Y-134306214D01*
X177105884Y-134306214D02*
X177105884Y-133877642D01*
X177105884Y-133877642D02*
X177177312Y-133734785D01*
X177177312Y-133734785D02*
X177248741Y-133663357D01*
X177248741Y-133663357D02*
X177391598Y-133591928D01*
X177391598Y-133591928D02*
X177677312Y-133591928D01*
X177677312Y-133591928D02*
X177820170Y-133663357D01*
X178534455Y-134449071D02*
X178605884Y-134520500D01*
X178605884Y-134520500D02*
X178534455Y-134591928D01*
X178534455Y-134591928D02*
X178463027Y-134520500D01*
X178463027Y-134520500D02*
X178534455Y-134449071D01*
X178534455Y-134449071D02*
X178534455Y-134591928D01*
X178534455Y-133663357D02*
X178605884Y-133734785D01*
X178605884Y-133734785D02*
X178534455Y-133806214D01*
X178534455Y-133806214D02*
X178463027Y-133734785D01*
X178463027Y-133734785D02*
X178534455Y-133663357D01*
X178534455Y-133663357D02*
X178534455Y-133806214D01*
X180463027Y-134591928D02*
X180748741Y-134591928D01*
X180748741Y-134591928D02*
X180891598Y-134520500D01*
X180891598Y-134520500D02*
X180963027Y-134449071D01*
X180963027Y-134449071D02*
X181105884Y-134234785D01*
X181105884Y-134234785D02*
X181177313Y-133949071D01*
X181177313Y-133949071D02*
X181177313Y-133377642D01*
X181177313Y-133377642D02*
X181105884Y-133234785D01*
X181105884Y-133234785D02*
X181034456Y-133163357D01*
X181034456Y-133163357D02*
X180891598Y-133091928D01*
X180891598Y-133091928D02*
X180605884Y-133091928D01*
X180605884Y-133091928D02*
X180463027Y-133163357D01*
X180463027Y-133163357D02*
X180391598Y-133234785D01*
X180391598Y-133234785D02*
X180320170Y-133377642D01*
X180320170Y-133377642D02*
X180320170Y-133734785D01*
X180320170Y-133734785D02*
X180391598Y-133877642D01*
X180391598Y-133877642D02*
X180463027Y-133949071D01*
X180463027Y-133949071D02*
X180605884Y-134020500D01*
X180605884Y-134020500D02*
X180891598Y-134020500D01*
X180891598Y-134020500D02*
X181034456Y-133949071D01*
X181034456Y-133949071D02*
X181105884Y-133877642D01*
X181105884Y-133877642D02*
X181177313Y-133734785D01*
X182891598Y-133020500D02*
X181605884Y-134949071D01*
X184177313Y-134591928D02*
X183320170Y-134591928D01*
X183748741Y-134591928D02*
X183748741Y-133091928D01*
X183748741Y-133091928D02*
X183605884Y-133306214D01*
X183605884Y-133306214D02*
X183463027Y-133449071D01*
X183463027Y-133449071D02*
X183320170Y-133520500D01*
X185105884Y-133091928D02*
X185248741Y-133091928D01*
X185248741Y-133091928D02*
X185391598Y-133163357D01*
X185391598Y-133163357D02*
X185463027Y-133234785D01*
X185463027Y-133234785D02*
X185534455Y-133377642D01*
X185534455Y-133377642D02*
X185605884Y-133663357D01*
X185605884Y-133663357D02*
X185605884Y-134020500D01*
X185605884Y-134020500D02*
X185534455Y-134306214D01*
X185534455Y-134306214D02*
X185463027Y-134449071D01*
X185463027Y-134449071D02*
X185391598Y-134520500D01*
X185391598Y-134520500D02*
X185248741Y-134591928D01*
X185248741Y-134591928D02*
X185105884Y-134591928D01*
X185105884Y-134591928D02*
X184963027Y-134520500D01*
X184963027Y-134520500D02*
X184891598Y-134449071D01*
X184891598Y-134449071D02*
X184820169Y-134306214D01*
X184820169Y-134306214D02*
X184748741Y-134020500D01*
X184748741Y-134020500D02*
X184748741Y-133663357D01*
X184748741Y-133663357D02*
X184820169Y-133377642D01*
X184820169Y-133377642D02*
X184891598Y-133234785D01*
X184891598Y-133234785D02*
X184963027Y-133163357D01*
X184963027Y-133163357D02*
X185105884Y-133091928D01*
X90007200Y-125505800D02*
X198007200Y-125505800D01*
D12*
X91698928Y-126210238D02*
X92841785Y-126210238D01*
X92020357Y-128210238D02*
X92270357Y-126210238D01*
X93258452Y-128210238D02*
X93425119Y-126876904D01*
X93508452Y-126210238D02*
X93401309Y-126305476D01*
X93401309Y-126305476D02*
X93484643Y-126400714D01*
X93484643Y-126400714D02*
X93591786Y-126305476D01*
X93591786Y-126305476D02*
X93508452Y-126210238D01*
X93508452Y-126210238D02*
X93484643Y-126400714D01*
X94091786Y-126876904D02*
X94853690Y-126876904D01*
X94460833Y-126210238D02*
X94246548Y-127924523D01*
X94246548Y-127924523D02*
X94317976Y-128115000D01*
X94317976Y-128115000D02*
X94496548Y-128210238D01*
X94496548Y-128210238D02*
X94687024Y-128210238D01*
X95639405Y-128210238D02*
X95460833Y-128115000D01*
X95460833Y-128115000D02*
X95389405Y-127924523D01*
X95389405Y-127924523D02*
X95603690Y-126210238D01*
X97175119Y-128115000D02*
X96972738Y-128210238D01*
X96972738Y-128210238D02*
X96591785Y-128210238D01*
X96591785Y-128210238D02*
X96413214Y-128115000D01*
X96413214Y-128115000D02*
X96341785Y-127924523D01*
X96341785Y-127924523D02*
X96437024Y-127162619D01*
X96437024Y-127162619D02*
X96556071Y-126972142D01*
X96556071Y-126972142D02*
X96758452Y-126876904D01*
X96758452Y-126876904D02*
X97139404Y-126876904D01*
X97139404Y-126876904D02*
X97317976Y-126972142D01*
X97317976Y-126972142D02*
X97389404Y-127162619D01*
X97389404Y-127162619D02*
X97365595Y-127353095D01*
X97365595Y-127353095D02*
X96389404Y-127543571D01*
X98139405Y-128019761D02*
X98222738Y-128115000D01*
X98222738Y-128115000D02*
X98115595Y-128210238D01*
X98115595Y-128210238D02*
X98032262Y-128115000D01*
X98032262Y-128115000D02*
X98139405Y-128019761D01*
X98139405Y-128019761D02*
X98115595Y-128210238D01*
X98270357Y-126972142D02*
X98353690Y-127067380D01*
X98353690Y-127067380D02*
X98246548Y-127162619D01*
X98246548Y-127162619D02*
X98163214Y-127067380D01*
X98163214Y-127067380D02*
X98270357Y-126972142D01*
X98270357Y-126972142D02*
X98246548Y-127162619D01*
X100591786Y-128210238D02*
X100841786Y-126210238D01*
X100841786Y-126210238D02*
X101329881Y-127638809D01*
X101329881Y-127638809D02*
X102175120Y-126210238D01*
X102175120Y-126210238D02*
X101925120Y-128210238D01*
X103163215Y-128210238D02*
X102984643Y-128115000D01*
X102984643Y-128115000D02*
X102901310Y-128019761D01*
X102901310Y-128019761D02*
X102829881Y-127829285D01*
X102829881Y-127829285D02*
X102901310Y-127257857D01*
X102901310Y-127257857D02*
X103020357Y-127067380D01*
X103020357Y-127067380D02*
X103127500Y-126972142D01*
X103127500Y-126972142D02*
X103329881Y-126876904D01*
X103329881Y-126876904D02*
X103615595Y-126876904D01*
X103615595Y-126876904D02*
X103794167Y-126972142D01*
X103794167Y-126972142D02*
X103877500Y-127067380D01*
X103877500Y-127067380D02*
X103948929Y-127257857D01*
X103948929Y-127257857D02*
X103877500Y-127829285D01*
X103877500Y-127829285D02*
X103758453Y-128019761D01*
X103758453Y-128019761D02*
X103651310Y-128115000D01*
X103651310Y-128115000D02*
X103448929Y-128210238D01*
X103448929Y-128210238D02*
X103163215Y-128210238D01*
X104567977Y-126876904D02*
X105329881Y-126876904D01*
X104937024Y-126210238D02*
X104722739Y-127924523D01*
X104722739Y-127924523D02*
X104794167Y-128115000D01*
X104794167Y-128115000D02*
X104972739Y-128210238D01*
X104972739Y-128210238D02*
X105163215Y-128210238D01*
X106115596Y-128210238D02*
X105937024Y-128115000D01*
X105937024Y-128115000D02*
X105853691Y-128019761D01*
X105853691Y-128019761D02*
X105782262Y-127829285D01*
X105782262Y-127829285D02*
X105853691Y-127257857D01*
X105853691Y-127257857D02*
X105972738Y-127067380D01*
X105972738Y-127067380D02*
X106079881Y-126972142D01*
X106079881Y-126972142D02*
X106282262Y-126876904D01*
X106282262Y-126876904D02*
X106567976Y-126876904D01*
X106567976Y-126876904D02*
X106746548Y-126972142D01*
X106746548Y-126972142D02*
X106829881Y-127067380D01*
X106829881Y-127067380D02*
X106901310Y-127257857D01*
X106901310Y-127257857D02*
X106829881Y-127829285D01*
X106829881Y-127829285D02*
X106710834Y-128019761D01*
X106710834Y-128019761D02*
X106603691Y-128115000D01*
X106603691Y-128115000D02*
X106401310Y-128210238D01*
X106401310Y-128210238D02*
X106115596Y-128210238D01*
X108591786Y-128210238D02*
X107639405Y-128210238D01*
X107639405Y-128210238D02*
X107889405Y-126210238D01*
X109544168Y-128210238D02*
X109365596Y-128115000D01*
X109365596Y-128115000D02*
X109282263Y-128019761D01*
X109282263Y-128019761D02*
X109210834Y-127829285D01*
X109210834Y-127829285D02*
X109282263Y-127257857D01*
X109282263Y-127257857D02*
X109401310Y-127067380D01*
X109401310Y-127067380D02*
X109508453Y-126972142D01*
X109508453Y-126972142D02*
X109710834Y-126876904D01*
X109710834Y-126876904D02*
X109996548Y-126876904D01*
X109996548Y-126876904D02*
X110175120Y-126972142D01*
X110175120Y-126972142D02*
X110258453Y-127067380D01*
X110258453Y-127067380D02*
X110329882Y-127257857D01*
X110329882Y-127257857D02*
X110258453Y-127829285D01*
X110258453Y-127829285D02*
X110139406Y-128019761D01*
X110139406Y-128019761D02*
X110032263Y-128115000D01*
X110032263Y-128115000D02*
X109829882Y-128210238D01*
X109829882Y-128210238D02*
X109544168Y-128210238D01*
X112091787Y-126876904D02*
X111889406Y-128495952D01*
X111889406Y-128495952D02*
X111770358Y-128686428D01*
X111770358Y-128686428D02*
X111663215Y-128781666D01*
X111663215Y-128781666D02*
X111460834Y-128876904D01*
X111460834Y-128876904D02*
X111175120Y-128876904D01*
X111175120Y-128876904D02*
X110996549Y-128781666D01*
X111937025Y-128115000D02*
X111734644Y-128210238D01*
X111734644Y-128210238D02*
X111353692Y-128210238D01*
X111353692Y-128210238D02*
X111175120Y-128115000D01*
X111175120Y-128115000D02*
X111091787Y-128019761D01*
X111091787Y-128019761D02*
X111020358Y-127829285D01*
X111020358Y-127829285D02*
X111091787Y-127257857D01*
X111091787Y-127257857D02*
X111210834Y-127067380D01*
X111210834Y-127067380D02*
X111317977Y-126972142D01*
X111317977Y-126972142D02*
X111520358Y-126876904D01*
X111520358Y-126876904D02*
X111901311Y-126876904D01*
X111901311Y-126876904D02*
X112079882Y-126972142D01*
X113901311Y-126876904D02*
X113698930Y-128495952D01*
X113698930Y-128495952D02*
X113579882Y-128686428D01*
X113579882Y-128686428D02*
X113472739Y-128781666D01*
X113472739Y-128781666D02*
X113270358Y-128876904D01*
X113270358Y-128876904D02*
X112984644Y-128876904D01*
X112984644Y-128876904D02*
X112806073Y-128781666D01*
X113746549Y-128115000D02*
X113544168Y-128210238D01*
X113544168Y-128210238D02*
X113163216Y-128210238D01*
X113163216Y-128210238D02*
X112984644Y-128115000D01*
X112984644Y-128115000D02*
X112901311Y-128019761D01*
X112901311Y-128019761D02*
X112829882Y-127829285D01*
X112829882Y-127829285D02*
X112901311Y-127257857D01*
X112901311Y-127257857D02*
X113020358Y-127067380D01*
X113020358Y-127067380D02*
X113127501Y-126972142D01*
X113127501Y-126972142D02*
X113329882Y-126876904D01*
X113329882Y-126876904D02*
X113710835Y-126876904D01*
X113710835Y-126876904D02*
X113889406Y-126972142D01*
X115460835Y-128115000D02*
X115258454Y-128210238D01*
X115258454Y-128210238D02*
X114877501Y-128210238D01*
X114877501Y-128210238D02*
X114698930Y-128115000D01*
X114698930Y-128115000D02*
X114627501Y-127924523D01*
X114627501Y-127924523D02*
X114722740Y-127162619D01*
X114722740Y-127162619D02*
X114841787Y-126972142D01*
X114841787Y-126972142D02*
X115044168Y-126876904D01*
X115044168Y-126876904D02*
X115425120Y-126876904D01*
X115425120Y-126876904D02*
X115603692Y-126972142D01*
X115603692Y-126972142D02*
X115675120Y-127162619D01*
X115675120Y-127162619D02*
X115651311Y-127353095D01*
X115651311Y-127353095D02*
X114675120Y-127543571D01*
X116401311Y-128210238D02*
X116567978Y-126876904D01*
X116520359Y-127257857D02*
X116639406Y-127067380D01*
X116639406Y-127067380D02*
X116746549Y-126972142D01*
X116746549Y-126972142D02*
X116948930Y-126876904D01*
X116948930Y-126876904D02*
X117139406Y-126876904D01*
X119163216Y-128210238D02*
X119413216Y-126210238D01*
X119413216Y-126210238D02*
X119901311Y-127638809D01*
X119901311Y-127638809D02*
X120746550Y-126210238D01*
X120746550Y-126210238D02*
X120496550Y-128210238D01*
X121734645Y-128210238D02*
X121556073Y-128115000D01*
X121556073Y-128115000D02*
X121472740Y-128019761D01*
X121472740Y-128019761D02*
X121401311Y-127829285D01*
X121401311Y-127829285D02*
X121472740Y-127257857D01*
X121472740Y-127257857D02*
X121591787Y-127067380D01*
X121591787Y-127067380D02*
X121698930Y-126972142D01*
X121698930Y-126972142D02*
X121901311Y-126876904D01*
X121901311Y-126876904D02*
X122187025Y-126876904D01*
X122187025Y-126876904D02*
X122365597Y-126972142D01*
X122365597Y-126972142D02*
X122448930Y-127067380D01*
X122448930Y-127067380D02*
X122520359Y-127257857D01*
X122520359Y-127257857D02*
X122448930Y-127829285D01*
X122448930Y-127829285D02*
X122329883Y-128019761D01*
X122329883Y-128019761D02*
X122222740Y-128115000D01*
X122222740Y-128115000D02*
X122020359Y-128210238D01*
X122020359Y-128210238D02*
X121734645Y-128210238D01*
X123139407Y-126876904D02*
X123901311Y-126876904D01*
X123508454Y-126210238D02*
X123294169Y-127924523D01*
X123294169Y-127924523D02*
X123365597Y-128115000D01*
X123365597Y-128115000D02*
X123544169Y-128210238D01*
X123544169Y-128210238D02*
X123734645Y-128210238D01*
X124401311Y-128210238D02*
X124651311Y-126210238D01*
X125258454Y-128210238D02*
X125389406Y-127162619D01*
X125389406Y-127162619D02*
X125317978Y-126972142D01*
X125317978Y-126972142D02*
X125139406Y-126876904D01*
X125139406Y-126876904D02*
X124853692Y-126876904D01*
X124853692Y-126876904D02*
X124651311Y-126972142D01*
X124651311Y-126972142D02*
X124544168Y-127067380D01*
X126984645Y-128115000D02*
X126782264Y-128210238D01*
X126782264Y-128210238D02*
X126401311Y-128210238D01*
X126401311Y-128210238D02*
X126222740Y-128115000D01*
X126222740Y-128115000D02*
X126151311Y-127924523D01*
X126151311Y-127924523D02*
X126246550Y-127162619D01*
X126246550Y-127162619D02*
X126365597Y-126972142D01*
X126365597Y-126972142D02*
X126567978Y-126876904D01*
X126567978Y-126876904D02*
X126948930Y-126876904D01*
X126948930Y-126876904D02*
X127127502Y-126972142D01*
X127127502Y-126972142D02*
X127198930Y-127162619D01*
X127198930Y-127162619D02*
X127175121Y-127353095D01*
X127175121Y-127353095D02*
X126198930Y-127543571D01*
X127925121Y-128210238D02*
X128091788Y-126876904D01*
X128044169Y-127257857D02*
X128163216Y-127067380D01*
X128163216Y-127067380D02*
X128270359Y-126972142D01*
X128270359Y-126972142D02*
X128472740Y-126876904D01*
X128472740Y-126876904D02*
X128663216Y-126876904D01*
X129163216Y-128210238D02*
X129413216Y-126210238D01*
X129317978Y-126972142D02*
X129520359Y-126876904D01*
X129520359Y-126876904D02*
X129901311Y-126876904D01*
X129901311Y-126876904D02*
X130079883Y-126972142D01*
X130079883Y-126972142D02*
X130163216Y-127067380D01*
X130163216Y-127067380D02*
X130234645Y-127257857D01*
X130234645Y-127257857D02*
X130163216Y-127829285D01*
X130163216Y-127829285D02*
X130044169Y-128019761D01*
X130044169Y-128019761D02*
X129937026Y-128115000D01*
X129937026Y-128115000D02*
X129734645Y-128210238D01*
X129734645Y-128210238D02*
X129353692Y-128210238D01*
X129353692Y-128210238D02*
X129175121Y-128115000D01*
X131258455Y-128210238D02*
X131079883Y-128115000D01*
X131079883Y-128115000D02*
X130996550Y-128019761D01*
X130996550Y-128019761D02*
X130925121Y-127829285D01*
X130925121Y-127829285D02*
X130996550Y-127257857D01*
X130996550Y-127257857D02*
X131115597Y-127067380D01*
X131115597Y-127067380D02*
X131222740Y-126972142D01*
X131222740Y-126972142D02*
X131425121Y-126876904D01*
X131425121Y-126876904D02*
X131710835Y-126876904D01*
X131710835Y-126876904D02*
X131889407Y-126972142D01*
X131889407Y-126972142D02*
X131972740Y-127067380D01*
X131972740Y-127067380D02*
X132044169Y-127257857D01*
X132044169Y-127257857D02*
X131972740Y-127829285D01*
X131972740Y-127829285D02*
X131853693Y-128019761D01*
X131853693Y-128019761D02*
X131746550Y-128115000D01*
X131746550Y-128115000D02*
X131544169Y-128210238D01*
X131544169Y-128210238D02*
X131258455Y-128210238D01*
X133639407Y-128210238D02*
X133770359Y-127162619D01*
X133770359Y-127162619D02*
X133698931Y-126972142D01*
X133698931Y-126972142D02*
X133520359Y-126876904D01*
X133520359Y-126876904D02*
X133139407Y-126876904D01*
X133139407Y-126876904D02*
X132937026Y-126972142D01*
X133651312Y-128115000D02*
X133448931Y-128210238D01*
X133448931Y-128210238D02*
X132972740Y-128210238D01*
X132972740Y-128210238D02*
X132794169Y-128115000D01*
X132794169Y-128115000D02*
X132722740Y-127924523D01*
X132722740Y-127924523D02*
X132746550Y-127734047D01*
X132746550Y-127734047D02*
X132865598Y-127543571D01*
X132865598Y-127543571D02*
X133067979Y-127448333D01*
X133067979Y-127448333D02*
X133544169Y-127448333D01*
X133544169Y-127448333D02*
X133746550Y-127353095D01*
X134591788Y-128210238D02*
X134758455Y-126876904D01*
X134710836Y-127257857D02*
X134829883Y-127067380D01*
X134829883Y-127067380D02*
X134937026Y-126972142D01*
X134937026Y-126972142D02*
X135139407Y-126876904D01*
X135139407Y-126876904D02*
X135329883Y-126876904D01*
X136687026Y-128210238D02*
X136937026Y-126210238D01*
X136698931Y-128115000D02*
X136496550Y-128210238D01*
X136496550Y-128210238D02*
X136115598Y-128210238D01*
X136115598Y-128210238D02*
X135937026Y-128115000D01*
X135937026Y-128115000D02*
X135853693Y-128019761D01*
X135853693Y-128019761D02*
X135782264Y-127829285D01*
X135782264Y-127829285D02*
X135853693Y-127257857D01*
X135853693Y-127257857D02*
X135972740Y-127067380D01*
X135972740Y-127067380D02*
X136079883Y-126972142D01*
X136079883Y-126972142D02*
X136282264Y-126876904D01*
X136282264Y-126876904D02*
X136663217Y-126876904D01*
X136663217Y-126876904D02*
X136841788Y-126972142D01*
D10*
X91963026Y-123606214D02*
X91463026Y-123606214D01*
X91463026Y-124391928D02*
X91463026Y-122891928D01*
X91463026Y-122891928D02*
X92177312Y-122891928D01*
X92748740Y-124391928D02*
X92748740Y-123391928D01*
X92748740Y-122891928D02*
X92677312Y-122963357D01*
X92677312Y-122963357D02*
X92748740Y-123034785D01*
X92748740Y-123034785D02*
X92820169Y-122963357D01*
X92820169Y-122963357D02*
X92748740Y-122891928D01*
X92748740Y-122891928D02*
X92748740Y-123034785D01*
X93677312Y-124391928D02*
X93534455Y-124320500D01*
X93534455Y-124320500D02*
X93463026Y-124177642D01*
X93463026Y-124177642D02*
X93463026Y-122891928D01*
X94820169Y-124320500D02*
X94677312Y-124391928D01*
X94677312Y-124391928D02*
X94391598Y-124391928D01*
X94391598Y-124391928D02*
X94248740Y-124320500D01*
X94248740Y-124320500D02*
X94177312Y-124177642D01*
X94177312Y-124177642D02*
X94177312Y-123606214D01*
X94177312Y-123606214D02*
X94248740Y-123463357D01*
X94248740Y-123463357D02*
X94391598Y-123391928D01*
X94391598Y-123391928D02*
X94677312Y-123391928D01*
X94677312Y-123391928D02*
X94820169Y-123463357D01*
X94820169Y-123463357D02*
X94891598Y-123606214D01*
X94891598Y-123606214D02*
X94891598Y-123749071D01*
X94891598Y-123749071D02*
X94177312Y-123891928D01*
X95534454Y-124249071D02*
X95605883Y-124320500D01*
X95605883Y-124320500D02*
X95534454Y-124391928D01*
X95534454Y-124391928D02*
X95463026Y-124320500D01*
X95463026Y-124320500D02*
X95534454Y-124249071D01*
X95534454Y-124249071D02*
X95534454Y-124391928D01*
X95534454Y-123463357D02*
X95605883Y-123534785D01*
X95605883Y-123534785D02*
X95534454Y-123606214D01*
X95534454Y-123606214D02*
X95463026Y-123534785D01*
X95463026Y-123534785D02*
X95534454Y-123463357D01*
X95534454Y-123463357D02*
X95534454Y-123606214D01*
X97391597Y-124391928D02*
X97391597Y-122891928D01*
X97391597Y-122891928D02*
X97748740Y-122891928D01*
X97748740Y-122891928D02*
X97963026Y-122963357D01*
X97963026Y-122963357D02*
X98105883Y-123106214D01*
X98105883Y-123106214D02*
X98177312Y-123249071D01*
X98177312Y-123249071D02*
X98248740Y-123534785D01*
X98248740Y-123534785D02*
X98248740Y-123749071D01*
X98248740Y-123749071D02*
X98177312Y-124034785D01*
X98177312Y-124034785D02*
X98105883Y-124177642D01*
X98105883Y-124177642D02*
X97963026Y-124320500D01*
X97963026Y-124320500D02*
X97748740Y-124391928D01*
X97748740Y-124391928D02*
X97391597Y-124391928D01*
X99534455Y-124391928D02*
X99534455Y-123606214D01*
X99534455Y-123606214D02*
X99463026Y-123463357D01*
X99463026Y-123463357D02*
X99320169Y-123391928D01*
X99320169Y-123391928D02*
X99034455Y-123391928D01*
X99034455Y-123391928D02*
X98891597Y-123463357D01*
X99534455Y-124320500D02*
X99391597Y-124391928D01*
X99391597Y-124391928D02*
X99034455Y-124391928D01*
X99034455Y-124391928D02*
X98891597Y-124320500D01*
X98891597Y-124320500D02*
X98820169Y-124177642D01*
X98820169Y-124177642D02*
X98820169Y-124034785D01*
X98820169Y-124034785D02*
X98891597Y-123891928D01*
X98891597Y-123891928D02*
X99034455Y-123820500D01*
X99034455Y-123820500D02*
X99391597Y-123820500D01*
X99391597Y-123820500D02*
X99534455Y-123749071D01*
X100034455Y-123391928D02*
X100605883Y-123391928D01*
X100248740Y-122891928D02*
X100248740Y-124177642D01*
X100248740Y-124177642D02*
X100320169Y-124320500D01*
X100320169Y-124320500D02*
X100463026Y-124391928D01*
X100463026Y-124391928D02*
X100605883Y-124391928D01*
X101748741Y-124391928D02*
X101748741Y-123606214D01*
X101748741Y-123606214D02*
X101677312Y-123463357D01*
X101677312Y-123463357D02*
X101534455Y-123391928D01*
X101534455Y-123391928D02*
X101248741Y-123391928D01*
X101248741Y-123391928D02*
X101105883Y-123463357D01*
X101748741Y-124320500D02*
X101605883Y-124391928D01*
X101605883Y-124391928D02*
X101248741Y-124391928D01*
X101248741Y-124391928D02*
X101105883Y-124320500D01*
X101105883Y-124320500D02*
X101034455Y-124177642D01*
X101034455Y-124177642D02*
X101034455Y-124034785D01*
X101034455Y-124034785D02*
X101105883Y-123891928D01*
X101105883Y-123891928D02*
X101248741Y-123820500D01*
X101248741Y-123820500D02*
X101605883Y-123820500D01*
X101605883Y-123820500D02*
X101748741Y-123749071D01*
X103177312Y-124391928D02*
X102463026Y-124391928D01*
X102463026Y-124391928D02*
X102463026Y-122891928D01*
X103891598Y-124391928D02*
X103748741Y-124320500D01*
X103748741Y-124320500D02*
X103677312Y-124249071D01*
X103677312Y-124249071D02*
X103605884Y-124106214D01*
X103605884Y-124106214D02*
X103605884Y-123677642D01*
X103605884Y-123677642D02*
X103677312Y-123534785D01*
X103677312Y-123534785D02*
X103748741Y-123463357D01*
X103748741Y-123463357D02*
X103891598Y-123391928D01*
X103891598Y-123391928D02*
X104105884Y-123391928D01*
X104105884Y-123391928D02*
X104248741Y-123463357D01*
X104248741Y-123463357D02*
X104320170Y-123534785D01*
X104320170Y-123534785D02*
X104391598Y-123677642D01*
X104391598Y-123677642D02*
X104391598Y-124106214D01*
X104391598Y-124106214D02*
X104320170Y-124249071D01*
X104320170Y-124249071D02*
X104248741Y-124320500D01*
X104248741Y-124320500D02*
X104105884Y-124391928D01*
X104105884Y-124391928D02*
X103891598Y-124391928D01*
X105677313Y-123391928D02*
X105677313Y-124606214D01*
X105677313Y-124606214D02*
X105605884Y-124749071D01*
X105605884Y-124749071D02*
X105534455Y-124820500D01*
X105534455Y-124820500D02*
X105391598Y-124891928D01*
X105391598Y-124891928D02*
X105177313Y-124891928D01*
X105177313Y-124891928D02*
X105034455Y-124820500D01*
X105677313Y-124320500D02*
X105534455Y-124391928D01*
X105534455Y-124391928D02*
X105248741Y-124391928D01*
X105248741Y-124391928D02*
X105105884Y-124320500D01*
X105105884Y-124320500D02*
X105034455Y-124249071D01*
X105034455Y-124249071D02*
X104963027Y-124106214D01*
X104963027Y-124106214D02*
X104963027Y-123677642D01*
X104963027Y-123677642D02*
X105034455Y-123534785D01*
X105034455Y-123534785D02*
X105105884Y-123463357D01*
X105105884Y-123463357D02*
X105248741Y-123391928D01*
X105248741Y-123391928D02*
X105534455Y-123391928D01*
X105534455Y-123391928D02*
X105677313Y-123463357D01*
X107034456Y-123391928D02*
X107034456Y-124606214D01*
X107034456Y-124606214D02*
X106963027Y-124749071D01*
X106963027Y-124749071D02*
X106891598Y-124820500D01*
X106891598Y-124820500D02*
X106748741Y-124891928D01*
X106748741Y-124891928D02*
X106534456Y-124891928D01*
X106534456Y-124891928D02*
X106391598Y-124820500D01*
X107034456Y-124320500D02*
X106891598Y-124391928D01*
X106891598Y-124391928D02*
X106605884Y-124391928D01*
X106605884Y-124391928D02*
X106463027Y-124320500D01*
X106463027Y-124320500D02*
X106391598Y-124249071D01*
X106391598Y-124249071D02*
X106320170Y-124106214D01*
X106320170Y-124106214D02*
X106320170Y-123677642D01*
X106320170Y-123677642D02*
X106391598Y-123534785D01*
X106391598Y-123534785D02*
X106463027Y-123463357D01*
X106463027Y-123463357D02*
X106605884Y-123391928D01*
X106605884Y-123391928D02*
X106891598Y-123391928D01*
X106891598Y-123391928D02*
X107034456Y-123463357D01*
X108320170Y-124320500D02*
X108177313Y-124391928D01*
X108177313Y-124391928D02*
X107891599Y-124391928D01*
X107891599Y-124391928D02*
X107748741Y-124320500D01*
X107748741Y-124320500D02*
X107677313Y-124177642D01*
X107677313Y-124177642D02*
X107677313Y-123606214D01*
X107677313Y-123606214D02*
X107748741Y-123463357D01*
X107748741Y-123463357D02*
X107891599Y-123391928D01*
X107891599Y-123391928D02*
X108177313Y-123391928D01*
X108177313Y-123391928D02*
X108320170Y-123463357D01*
X108320170Y-123463357D02*
X108391599Y-123606214D01*
X108391599Y-123606214D02*
X108391599Y-123749071D01*
X108391599Y-123749071D02*
X107677313Y-123891928D01*
X109034455Y-124391928D02*
X109034455Y-123391928D01*
X109034455Y-123677642D02*
X109105884Y-123534785D01*
X109105884Y-123534785D02*
X109177313Y-123463357D01*
X109177313Y-123463357D02*
X109320170Y-123391928D01*
X109320170Y-123391928D02*
X109463027Y-123391928D01*
X109891598Y-123034785D02*
X109963026Y-122963357D01*
X109963026Y-122963357D02*
X110105884Y-122891928D01*
X110105884Y-122891928D02*
X110463026Y-122891928D01*
X110463026Y-122891928D02*
X110605884Y-122963357D01*
X110605884Y-122963357D02*
X110677312Y-123034785D01*
X110677312Y-123034785D02*
X110748741Y-123177642D01*
X110748741Y-123177642D02*
X110748741Y-123320500D01*
X110748741Y-123320500D02*
X110677312Y-123534785D01*
X110677312Y-123534785D02*
X109820169Y-124391928D01*
X109820169Y-124391928D02*
X110748741Y-124391928D01*
X111677312Y-122891928D02*
X111820169Y-122891928D01*
X111820169Y-122891928D02*
X111963026Y-122963357D01*
X111963026Y-122963357D02*
X112034455Y-123034785D01*
X112034455Y-123034785D02*
X112105883Y-123177642D01*
X112105883Y-123177642D02*
X112177312Y-123463357D01*
X112177312Y-123463357D02*
X112177312Y-123820500D01*
X112177312Y-123820500D02*
X112105883Y-124106214D01*
X112105883Y-124106214D02*
X112034455Y-124249071D01*
X112034455Y-124249071D02*
X111963026Y-124320500D01*
X111963026Y-124320500D02*
X111820169Y-124391928D01*
X111820169Y-124391928D02*
X111677312Y-124391928D01*
X111677312Y-124391928D02*
X111534455Y-124320500D01*
X111534455Y-124320500D02*
X111463026Y-124249071D01*
X111463026Y-124249071D02*
X111391597Y-124106214D01*
X111391597Y-124106214D02*
X111320169Y-123820500D01*
X111320169Y-123820500D02*
X111320169Y-123463357D01*
X111320169Y-123463357D02*
X111391597Y-123177642D01*
X111391597Y-123177642D02*
X111463026Y-123034785D01*
X111463026Y-123034785D02*
X111534455Y-122963357D01*
X111534455Y-122963357D02*
X111677312Y-122891928D01*
X112748740Y-123034785D02*
X112820168Y-122963357D01*
X112820168Y-122963357D02*
X112963026Y-122891928D01*
X112963026Y-122891928D02*
X113320168Y-122891928D01*
X113320168Y-122891928D02*
X113463026Y-122963357D01*
X113463026Y-122963357D02*
X113534454Y-123034785D01*
X113534454Y-123034785D02*
X113605883Y-123177642D01*
X113605883Y-123177642D02*
X113605883Y-123320500D01*
X113605883Y-123320500D02*
X113534454Y-123534785D01*
X113534454Y-123534785D02*
X112677311Y-124391928D01*
X112677311Y-124391928D02*
X113605883Y-124391928D01*
X114963025Y-122891928D02*
X114248739Y-122891928D01*
X114248739Y-122891928D02*
X114177311Y-123606214D01*
X114177311Y-123606214D02*
X114248739Y-123534785D01*
X114248739Y-123534785D02*
X114391597Y-123463357D01*
X114391597Y-123463357D02*
X114748739Y-123463357D01*
X114748739Y-123463357D02*
X114891597Y-123534785D01*
X114891597Y-123534785D02*
X114963025Y-123606214D01*
X114963025Y-123606214D02*
X115034454Y-123749071D01*
X115034454Y-123749071D02*
X115034454Y-124106214D01*
X115034454Y-124106214D02*
X114963025Y-124249071D01*
X114963025Y-124249071D02*
X114891597Y-124320500D01*
X114891597Y-124320500D02*
X114748739Y-124391928D01*
X114748739Y-124391928D02*
X114391597Y-124391928D01*
X114391597Y-124391928D02*
X114248739Y-124320500D01*
X114248739Y-124320500D02*
X114177311Y-124249071D01*
X115677310Y-124249071D02*
X115748739Y-124320500D01*
X115748739Y-124320500D02*
X115677310Y-124391928D01*
X115677310Y-124391928D02*
X115605882Y-124320500D01*
X115605882Y-124320500D02*
X115677310Y-124249071D01*
X115677310Y-124249071D02*
X115677310Y-124391928D01*
X116391596Y-124391928D02*
X116391596Y-122891928D01*
X116534454Y-123820500D02*
X116963025Y-124391928D01*
X116963025Y-123391928D02*
X116391596Y-123963357D01*
X117605882Y-124391928D02*
X117605882Y-123391928D01*
X117605882Y-122891928D02*
X117534454Y-122963357D01*
X117534454Y-122963357D02*
X117605882Y-123034785D01*
X117605882Y-123034785D02*
X117677311Y-122963357D01*
X117677311Y-122963357D02*
X117605882Y-122891928D01*
X117605882Y-122891928D02*
X117605882Y-123034785D01*
X118963026Y-124320500D02*
X118820168Y-124391928D01*
X118820168Y-124391928D02*
X118534454Y-124391928D01*
X118534454Y-124391928D02*
X118391597Y-124320500D01*
X118391597Y-124320500D02*
X118320168Y-124249071D01*
X118320168Y-124249071D02*
X118248740Y-124106214D01*
X118248740Y-124106214D02*
X118248740Y-123677642D01*
X118248740Y-123677642D02*
X118320168Y-123534785D01*
X118320168Y-123534785D02*
X118391597Y-123463357D01*
X118391597Y-123463357D02*
X118534454Y-123391928D01*
X118534454Y-123391928D02*
X118820168Y-123391928D01*
X118820168Y-123391928D02*
X118963026Y-123463357D01*
X120248740Y-124391928D02*
X120248740Y-123606214D01*
X120248740Y-123606214D02*
X120177311Y-123463357D01*
X120177311Y-123463357D02*
X120034454Y-123391928D01*
X120034454Y-123391928D02*
X119748740Y-123391928D01*
X119748740Y-123391928D02*
X119605882Y-123463357D01*
X120248740Y-124320500D02*
X120105882Y-124391928D01*
X120105882Y-124391928D02*
X119748740Y-124391928D01*
X119748740Y-124391928D02*
X119605882Y-124320500D01*
X119605882Y-124320500D02*
X119534454Y-124177642D01*
X119534454Y-124177642D02*
X119534454Y-124034785D01*
X119534454Y-124034785D02*
X119605882Y-123891928D01*
X119605882Y-123891928D02*
X119748740Y-123820500D01*
X119748740Y-123820500D02*
X120105882Y-123820500D01*
X120105882Y-123820500D02*
X120248740Y-123749071D01*
X121605883Y-124391928D02*
X121605883Y-122891928D01*
X121605883Y-124320500D02*
X121463025Y-124391928D01*
X121463025Y-124391928D02*
X121177311Y-124391928D01*
X121177311Y-124391928D02*
X121034454Y-124320500D01*
X121034454Y-124320500D02*
X120963025Y-124249071D01*
X120963025Y-124249071D02*
X120891597Y-124106214D01*
X120891597Y-124106214D02*
X120891597Y-123677642D01*
X120891597Y-123677642D02*
X120963025Y-123534785D01*
X120963025Y-123534785D02*
X121034454Y-123463357D01*
X121034454Y-123463357D02*
X121177311Y-123391928D01*
X121177311Y-123391928D02*
X121463025Y-123391928D01*
X121463025Y-123391928D02*
X121605883Y-123463357D01*
X121963026Y-124534785D02*
X123105883Y-124534785D01*
X123463025Y-123391928D02*
X123463025Y-124891928D01*
X123463025Y-123463357D02*
X123605883Y-123391928D01*
X123605883Y-123391928D02*
X123891597Y-123391928D01*
X123891597Y-123391928D02*
X124034454Y-123463357D01*
X124034454Y-123463357D02*
X124105883Y-123534785D01*
X124105883Y-123534785D02*
X124177311Y-123677642D01*
X124177311Y-123677642D02*
X124177311Y-124106214D01*
X124177311Y-124106214D02*
X124105883Y-124249071D01*
X124105883Y-124249071D02*
X124034454Y-124320500D01*
X124034454Y-124320500D02*
X123891597Y-124391928D01*
X123891597Y-124391928D02*
X123605883Y-124391928D01*
X123605883Y-124391928D02*
X123463025Y-124320500D01*
X125463026Y-124320500D02*
X125320168Y-124391928D01*
X125320168Y-124391928D02*
X125034454Y-124391928D01*
X125034454Y-124391928D02*
X124891597Y-124320500D01*
X124891597Y-124320500D02*
X124820168Y-124249071D01*
X124820168Y-124249071D02*
X124748740Y-124106214D01*
X124748740Y-124106214D02*
X124748740Y-123677642D01*
X124748740Y-123677642D02*
X124820168Y-123534785D01*
X124820168Y-123534785D02*
X124891597Y-123463357D01*
X124891597Y-123463357D02*
X125034454Y-123391928D01*
X125034454Y-123391928D02*
X125320168Y-123391928D01*
X125320168Y-123391928D02*
X125463026Y-123463357D01*
X126105882Y-124391928D02*
X126105882Y-122891928D01*
X126105882Y-123463357D02*
X126248740Y-123391928D01*
X126248740Y-123391928D02*
X126534454Y-123391928D01*
X126534454Y-123391928D02*
X126677311Y-123463357D01*
X126677311Y-123463357D02*
X126748740Y-123534785D01*
X126748740Y-123534785D02*
X126820168Y-123677642D01*
X126820168Y-123677642D02*
X126820168Y-124106214D01*
X126820168Y-124106214D02*
X126748740Y-124249071D01*
X126748740Y-124249071D02*
X126677311Y-124320500D01*
X126677311Y-124320500D02*
X126534454Y-124391928D01*
X126534454Y-124391928D02*
X126248740Y-124391928D01*
X126248740Y-124391928D02*
X126105882Y-124320500D01*
X90007200Y-119505800D02*
X198007200Y-119505800D01*
X91391598Y-121620500D02*
X91605884Y-121691928D01*
X91605884Y-121691928D02*
X91963026Y-121691928D01*
X91963026Y-121691928D02*
X92105884Y-121620500D01*
X92105884Y-121620500D02*
X92177312Y-121549071D01*
X92177312Y-121549071D02*
X92248741Y-121406214D01*
X92248741Y-121406214D02*
X92248741Y-121263357D01*
X92248741Y-121263357D02*
X92177312Y-121120500D01*
X92177312Y-121120500D02*
X92105884Y-121049071D01*
X92105884Y-121049071D02*
X91963026Y-120977642D01*
X91963026Y-120977642D02*
X91677312Y-120906214D01*
X91677312Y-120906214D02*
X91534455Y-120834785D01*
X91534455Y-120834785D02*
X91463026Y-120763357D01*
X91463026Y-120763357D02*
X91391598Y-120620500D01*
X91391598Y-120620500D02*
X91391598Y-120477642D01*
X91391598Y-120477642D02*
X91463026Y-120334785D01*
X91463026Y-120334785D02*
X91534455Y-120263357D01*
X91534455Y-120263357D02*
X91677312Y-120191928D01*
X91677312Y-120191928D02*
X92034455Y-120191928D01*
X92034455Y-120191928D02*
X92248741Y-120263357D01*
X92891597Y-121691928D02*
X92891597Y-120191928D01*
X93534455Y-121691928D02*
X93534455Y-120906214D01*
X93534455Y-120906214D02*
X93463026Y-120763357D01*
X93463026Y-120763357D02*
X93320169Y-120691928D01*
X93320169Y-120691928D02*
X93105883Y-120691928D01*
X93105883Y-120691928D02*
X92963026Y-120763357D01*
X92963026Y-120763357D02*
X92891597Y-120834785D01*
X94820169Y-121620500D02*
X94677312Y-121691928D01*
X94677312Y-121691928D02*
X94391598Y-121691928D01*
X94391598Y-121691928D02*
X94248740Y-121620500D01*
X94248740Y-121620500D02*
X94177312Y-121477642D01*
X94177312Y-121477642D02*
X94177312Y-120906214D01*
X94177312Y-120906214D02*
X94248740Y-120763357D01*
X94248740Y-120763357D02*
X94391598Y-120691928D01*
X94391598Y-120691928D02*
X94677312Y-120691928D01*
X94677312Y-120691928D02*
X94820169Y-120763357D01*
X94820169Y-120763357D02*
X94891598Y-120906214D01*
X94891598Y-120906214D02*
X94891598Y-121049071D01*
X94891598Y-121049071D02*
X94177312Y-121191928D01*
X96105883Y-121620500D02*
X95963026Y-121691928D01*
X95963026Y-121691928D02*
X95677312Y-121691928D01*
X95677312Y-121691928D02*
X95534454Y-121620500D01*
X95534454Y-121620500D02*
X95463026Y-121477642D01*
X95463026Y-121477642D02*
X95463026Y-120906214D01*
X95463026Y-120906214D02*
X95534454Y-120763357D01*
X95534454Y-120763357D02*
X95677312Y-120691928D01*
X95677312Y-120691928D02*
X95963026Y-120691928D01*
X95963026Y-120691928D02*
X96105883Y-120763357D01*
X96105883Y-120763357D02*
X96177312Y-120906214D01*
X96177312Y-120906214D02*
X96177312Y-121049071D01*
X96177312Y-121049071D02*
X95463026Y-121191928D01*
X96605883Y-120691928D02*
X97177311Y-120691928D01*
X96820168Y-120191928D02*
X96820168Y-121477642D01*
X96820168Y-121477642D02*
X96891597Y-121620500D01*
X96891597Y-121620500D02*
X97034454Y-121691928D01*
X97034454Y-121691928D02*
X97177311Y-121691928D01*
X97677311Y-121549071D02*
X97748740Y-121620500D01*
X97748740Y-121620500D02*
X97677311Y-121691928D01*
X97677311Y-121691928D02*
X97605883Y-121620500D01*
X97605883Y-121620500D02*
X97677311Y-121549071D01*
X97677311Y-121549071D02*
X97677311Y-121691928D01*
X97677311Y-120763357D02*
X97748740Y-120834785D01*
X97748740Y-120834785D02*
X97677311Y-120906214D01*
X97677311Y-120906214D02*
X97605883Y-120834785D01*
X97605883Y-120834785D02*
X97677311Y-120763357D01*
X97677311Y-120763357D02*
X97677311Y-120906214D01*
X110007200Y-129505800D02*
X110007200Y-132505800D01*
X174007200Y-129505800D02*
X174007200Y-136005800D01*
D13*
%TO.C,J1*%
X70291500Y-89961501D02*
X71008500Y-89961501D01*
X71008500Y-91238501D01*
X70291500Y-91238501D01*
X70291500Y-89961501D01*
G36*
X71008500Y-91238501D02*
G01*
X70291500Y-91238501D01*
X70291500Y-89961501D01*
X71008500Y-89961501D01*
X71008500Y-91238501D01*
G37*
X71091500Y-89961501D02*
X71808500Y-89961501D01*
X71808500Y-91238501D01*
X71091500Y-91238501D01*
X71091500Y-89961501D01*
G36*
X71808500Y-91238501D02*
G01*
X71091500Y-91238501D01*
X71091500Y-89961501D01*
X71808500Y-89961501D01*
X71808500Y-91238501D01*
G37*
X71887500Y-89961501D02*
X72312500Y-89961501D01*
X72312500Y-91238501D01*
X71887500Y-91238501D01*
X71887500Y-89961501D01*
G36*
X72312500Y-91238501D02*
G01*
X71887500Y-91238501D01*
X71887500Y-89961501D01*
X72312500Y-89961501D01*
X72312500Y-91238501D01*
G37*
X72387500Y-89961501D02*
X72812500Y-89961501D01*
X72812500Y-91238501D01*
X72387500Y-91238501D01*
X72387500Y-89961501D01*
G36*
X72812500Y-91238501D02*
G01*
X72387500Y-91238501D01*
X72387500Y-89961501D01*
X72812500Y-89961501D01*
X72812500Y-91238501D01*
G37*
X72887500Y-89961501D02*
X73312500Y-89961501D01*
X73312500Y-91238501D01*
X72887500Y-91238501D01*
X72887500Y-89961501D01*
G36*
X73312500Y-91238501D02*
G01*
X72887500Y-91238501D01*
X72887500Y-89961501D01*
X73312500Y-89961501D01*
X73312500Y-91238501D01*
G37*
X73387500Y-89961501D02*
X73812500Y-89961501D01*
X73812500Y-91238501D01*
X73387500Y-91238501D01*
X73387500Y-89961501D01*
G36*
X73812500Y-91238501D02*
G01*
X73387500Y-91238501D01*
X73387500Y-89961501D01*
X73812500Y-89961501D01*
X73812500Y-91238501D01*
G37*
X73887500Y-89961501D02*
X74312500Y-89961501D01*
X74312500Y-91238501D01*
X73887500Y-91238501D01*
X73887500Y-89961501D01*
G36*
X74312500Y-91238501D02*
G01*
X73887500Y-91238501D01*
X73887500Y-89961501D01*
X74312500Y-89961501D01*
X74312500Y-91238501D01*
G37*
X74387500Y-89961501D02*
X74812500Y-89961501D01*
X74812500Y-91238501D01*
X74387500Y-91238501D01*
X74387500Y-89961501D01*
G36*
X74812500Y-91238501D02*
G01*
X74387500Y-91238501D01*
X74387500Y-89961501D01*
X74812500Y-89961501D01*
X74812500Y-91238501D01*
G37*
X74887500Y-89961501D02*
X75312500Y-89961501D01*
X75312500Y-91238501D01*
X74887500Y-91238501D01*
X74887500Y-89961501D01*
G36*
X75312500Y-91238501D02*
G01*
X74887500Y-91238501D01*
X74887500Y-89961501D01*
X75312500Y-89961501D01*
X75312500Y-91238501D01*
G37*
X75387500Y-89961501D02*
X75812500Y-89961501D01*
X75812500Y-91238501D01*
X75387500Y-91238501D01*
X75387500Y-89961501D01*
G36*
X75812500Y-91238501D02*
G01*
X75387500Y-91238501D01*
X75387500Y-89961501D01*
X75812500Y-89961501D01*
X75812500Y-91238501D01*
G37*
X75891500Y-89961501D02*
X76608500Y-89961501D01*
X76608500Y-91238501D01*
X75891500Y-91238501D01*
X75891500Y-89961501D01*
G36*
X76608500Y-91238501D02*
G01*
X75891500Y-91238501D01*
X75891500Y-89961501D01*
X76608500Y-89961501D01*
X76608500Y-91238501D01*
G37*
X76691500Y-89961501D02*
X77408500Y-89961501D01*
X77408500Y-91238501D01*
X76691500Y-91238501D01*
X76691500Y-89961501D01*
G36*
X77408500Y-91238501D02*
G01*
X76691500Y-91238501D01*
X76691500Y-89961501D01*
X77408500Y-89961501D01*
X77408500Y-91238501D01*
G37*
%TD*%
D14*
%TO.C,R6*%
X93600000Y-66825001D03*
X93600000Y-69925001D03*
%TD*%
%TO.C,R10*%
X96700000Y-60125001D03*
X96700000Y-63225001D03*
%TD*%
D15*
%TO.C,MBAT_IN_12V1*%
X49295713Y-91870807D03*
D16*
X50794313Y-87552807D03*
X47797113Y-87552807D03*
%TD*%
D14*
%TO.C,R11*%
X75300000Y-27125001D03*
X75300000Y-30225001D03*
%TD*%
D17*
%TO.C,R8*%
X98025002Y-44424999D03*
X92945002Y-44424999D03*
%TD*%
D18*
%TO.C,R3*%
X43050000Y-32075001D03*
X39950000Y-32075001D03*
%TD*%
D19*
%TO.C,C21*%
X66700000Y-33837501D03*
X66700000Y-30712501D03*
%TD*%
D20*
%TO.C,D1_RP1*%
X53750000Y-75075001D03*
X58050000Y-75075001D03*
%TD*%
D21*
%TO.C,TP9*%
X90500000Y-61000000D03*
%TD*%
D22*
%TO.C,C6*%
X54652459Y-61663926D03*
D23*
X52884692Y-63431693D03*
%TD*%
D24*
%TO.C,R1*%
X60900000Y-41825000D03*
X60900000Y-38725000D03*
%TD*%
D25*
%TO.C,J7*%
X95350000Y-23400001D03*
D26*
X92850000Y-23400001D03*
X90350000Y-23400001D03*
X87850000Y-23400001D03*
X85350000Y-23400001D03*
X82850000Y-23400001D03*
X80350000Y-23400001D03*
X77850000Y-23400001D03*
X75350000Y-23400001D03*
X72850000Y-23400001D03*
%TD*%
D19*
%TO.C,C5*%
X49050000Y-62412501D03*
X49050000Y-59287501D03*
%TD*%
D14*
%TO.C,R12*%
X83750000Y-69525001D03*
X83750000Y-72625001D03*
%TD*%
D18*
%TO.C,R9*%
X72850000Y-56675001D03*
X69750000Y-56675001D03*
%TD*%
D27*
%TO.C,FUSE_2A1*%
X40150000Y-80375001D03*
X40150000Y-83775001D03*
X53620000Y-80375001D03*
X53620000Y-83775001D03*
%TD*%
D28*
%TO.C,C24*%
X69762500Y-54250001D03*
X72887500Y-54250001D03*
%TD*%
D19*
%TO.C,C11*%
X46500000Y-43437501D03*
X46500000Y-40312501D03*
%TD*%
D29*
%TO.C,VR2*%
X43637552Y-45415001D03*
D30*
X43637552Y-42875001D03*
X43637552Y-40335001D03*
%TD*%
D31*
%TO.C,D3*%
X35850000Y-32075001D03*
X37950000Y-32075001D03*
%TD*%
D32*
%TO.C,J2*%
X100000000Y-79415001D03*
X100400000Y-78315001D03*
X100000000Y-77215001D03*
X99800000Y-76115001D03*
X100000000Y-75015001D03*
X99800000Y-73915001D03*
X100000000Y-72815001D03*
X100000000Y-71715001D03*
D33*
X97150000Y-70925001D03*
X96150000Y-84075001D03*
D34*
X110300000Y-72525001D03*
X110300000Y-78225001D03*
%TD*%
D35*
%TO.C,C20*%
X64100000Y-30712501D03*
X64100000Y-33837501D03*
%TD*%
D36*
%TO.C,TP3*%
X64138568Y-44067436D03*
%TD*%
D37*
%TO.C,C8*%
X53467767Y-47642768D03*
D23*
X51700000Y-45875001D03*
%TD*%
D24*
%TO.C,R7*%
X86075000Y-72625002D03*
X86075000Y-69525002D03*
%TD*%
D38*
%TO.C,D2*%
X64500000Y-63387100D03*
X64500000Y-66612900D03*
%TD*%
D39*
%TO.C,D2_TVS1*%
X59200000Y-69675001D03*
X53800000Y-69675001D03*
%TD*%
D40*
%TO.C,D5*%
X99100000Y-63225001D03*
X99100000Y-61725001D03*
%TD*%
D14*
%TO.C,R4*%
X70000000Y-76450000D03*
X70000000Y-79550000D03*
%TD*%
D41*
%TO.C,C13*%
X53125000Y-36600001D03*
D23*
X53125000Y-39100001D03*
%TD*%
D42*
%TO.C,C2*%
X46850000Y-69950001D03*
D23*
X46850000Y-67450001D03*
%TD*%
D43*
%TO.C,J1*%
X69530000Y-95175001D03*
X78170000Y-95175001D03*
D44*
X69530000Y-91175001D03*
X78170000Y-91175001D03*
%TD*%
D45*
%TO.C,U4*%
X69000000Y-33880000D03*
X69000000Y-35150000D03*
X69000000Y-36420000D03*
X69000000Y-37690000D03*
X69000000Y-38960000D03*
X69000000Y-40230000D03*
X69000000Y-41500000D03*
X69000000Y-42770000D03*
X69000000Y-44040000D03*
X69000000Y-45310000D03*
X69000000Y-46580000D03*
X69000000Y-47850000D03*
X69000000Y-49120000D03*
X69000000Y-50390000D03*
D46*
X70765000Y-51640000D03*
X72035000Y-51640000D03*
X73305000Y-51640000D03*
X74575000Y-51640000D03*
X75845000Y-51640000D03*
X77115000Y-51640000D03*
X78385000Y-51640000D03*
X79655000Y-51640000D03*
X80925000Y-51640000D03*
X82195000Y-51640000D03*
X83465000Y-51640000D03*
X84735000Y-51640000D03*
D45*
X86500000Y-50390000D03*
X86500000Y-49120000D03*
X86500000Y-47850000D03*
X86500000Y-46580000D03*
X86500000Y-45310000D03*
X86500000Y-44040000D03*
X86500000Y-42770000D03*
X86500000Y-41500000D03*
X86500000Y-40230000D03*
X86500000Y-38960000D03*
X86500000Y-37690000D03*
X86500000Y-36420000D03*
X86500000Y-35150000D03*
X86500000Y-33880000D03*
D47*
X74850000Y-40200000D03*
X76250000Y-40200000D03*
X77650000Y-40200000D03*
X74850000Y-41600000D03*
X76250000Y-41600000D03*
X77650000Y-41600000D03*
X74850000Y-43000000D03*
X76250000Y-43000000D03*
X77650000Y-43000000D03*
%TD*%
D48*
%TO.C,H1*%
X39450000Y-24525001D03*
%TD*%
D28*
%TO.C,C10*%
X41137500Y-49675001D03*
X44262500Y-49675001D03*
%TD*%
%TO.C,C9*%
X41137500Y-52075001D03*
X44262500Y-52075001D03*
%TD*%
D14*
%TO.C,R5*%
X78500000Y-84450000D03*
X78500000Y-87550000D03*
%TD*%
D21*
%TO.C,TP2*%
X49194457Y-55732794D03*
%TD*%
%TO.C,TP4*%
X66500000Y-89000000D03*
%TD*%
D18*
%TO.C,R2*%
X86650000Y-57675001D03*
X83550000Y-57675001D03*
%TD*%
D48*
%TO.C,H2*%
X39450000Y-91775001D03*
%TD*%
D49*
%TO.C,C7*%
X57732233Y-51907234D03*
D23*
X59500000Y-53675001D03*
%TD*%
D50*
%TO.C,C4*%
X42887500Y-64400001D03*
X39762500Y-64400001D03*
%TD*%
D51*
%TO.C,U3*%
X93595000Y-52150001D03*
X94865000Y-52150001D03*
X96135000Y-52150001D03*
X97405000Y-52150001D03*
X97405000Y-47200001D03*
X96135000Y-47200001D03*
X94865000Y-47200001D03*
X93595000Y-47200001D03*
%TD*%
D21*
%TO.C,TP1*%
X58500000Y-86000000D03*
%TD*%
D52*
%TO.C,CR1*%
X71314450Y-83939800D03*
X71314450Y-83000000D03*
X71314450Y-82060200D03*
X68685550Y-82060200D03*
X68685550Y-83000000D03*
X68685550Y-83939800D03*
%TD*%
D53*
%TO.C,U2*%
X96225900Y-34622501D03*
X96225900Y-36527501D03*
X98334100Y-35575001D03*
%TD*%
D19*
%TO.C,C27*%
X89200000Y-72687501D03*
X89200000Y-69562501D03*
%TD*%
D48*
%TO.C,H3*%
X105950000Y-24775001D03*
%TD*%
D15*
%TO.C,J3*%
X106898000Y-35073601D03*
D16*
X102580000Y-33575001D03*
X102580000Y-36572201D03*
%TD*%
D28*
%TO.C,C12*%
X43537500Y-37750001D03*
X46662500Y-37750001D03*
%TD*%
D50*
%TO.C,C26*%
X93412500Y-75825001D03*
X90287500Y-75825001D03*
%TD*%
D41*
%TO.C,C1*%
X39650000Y-72472350D03*
D23*
X39650000Y-74972350D03*
%TD*%
D54*
%TO.C,TP8*%
X61055761Y-36453532D03*
%TD*%
D55*
%TO.C,VR1*%
X39710000Y-59275001D03*
D56*
X42250000Y-59275001D03*
X44790000Y-59275001D03*
%TD*%
D57*
%TO.C,U1*%
X95544114Y-40544922D03*
X94844116Y-40544922D03*
X94844116Y-42551522D03*
X95544114Y-42551522D03*
%TD*%
D38*
%TO.C,D1*%
X59000000Y-59887100D03*
X59000000Y-63112900D03*
%TD*%
D58*
%TO.C,C22*%
X65804854Y-37370147D03*
X63595146Y-39579855D03*
%TD*%
D48*
%TO.C,H4*%
X105950000Y-91775001D03*
%TD*%
D21*
%TO.C,TP5*%
X59500000Y-93500000D03*
%TD*%
D59*
%TO.C,SW1*%
X82650000Y-62475001D03*
X86750000Y-62475001D03*
X82650000Y-64075001D03*
X86750000Y-64075001D03*
%TD*%
D28*
%TO.C,C3*%
X36650000Y-66850001D03*
X39775000Y-66850001D03*
%TD*%
D60*
%TO.C,J5*%
X49100000Y-24475001D03*
D61*
X50600000Y-28795001D03*
D62*
X47600000Y-28795001D03*
%TD*%
D60*
%TO.C,J6*%
X59900000Y-24475001D03*
D61*
X61400000Y-28795001D03*
D62*
X58400000Y-28795001D03*
%TD*%
M02*
