%TF.GenerationSoftware,KiCad,Pcbnew,10.0.4*%
%TF.CreationDate,2026-07-17T08:05:41-05:00*%
%TF.ProjectId,DataLogger2025,44617461-4c6f-4676-9765-72323032352e,1*%
%TF.SameCoordinates,Original*%
%TF.FileFunction,Soldermask,Top*%
%TF.FilePolarity,Negative*%
%FSLAX46Y46*%
G04 Gerber Fmt 4.6, Leading zero omitted, Abs format (unit mm)*
G04 Created by KiCad (PCBNEW 10.0.4) date 2026-07-17 08:05:41*
%MOMM*%
%LPD*%
G01*
G04 APERTURE LIST*
G04 Aperture macros list*
%AMRoundRect*
0 Rectangle with rounded corners*
0 $1 Rounding radius*
0 $2 $3 $4 $5 $6 $7 $8 $9 X,Y pos of 4 corners*
0 Add a 4 corners polygon primitive as box body*
4,1,4,$2,$3,$4,$5,$6,$7,$8,$9,$2,$3,0*
0 Add four circle primitives for the rounded corners*
1,1,$1+$1,$2,$3*
1,1,$1+$1,$4,$5*
1,1,$1+$1,$6,$7*
1,1,$1+$1,$8,$9*
0 Add four rect primitives between the rounded corners*
20,1,$1+$1,$2,$3,$4,$5,0*
20,1,$1+$1,$4,$5,$6,$7,0*
20,1,$1+$1,$6,$7,$8,$9,0*
20,1,$1+$1,$8,$9,$2,$3,0*%
%AMRotRect*
0 Rectangle, with rotation*
0 The origin of the aperture is its center*
0 $1 length*
0 $2 width*
0 $3 Rotation angle, in degrees counterclockwise*
0 Add horizontal line*
21,1,$1,$2,0,0,$3*%
G04 Aperture macros list end*
%ADD10C,0.010000*%
%ADD11RoundRect,0.102000X-0.750000X-0.450000X0.750000X-0.450000X0.750000X0.450000X-0.750000X0.450000X0*%
%ADD12RoundRect,0.102000X-0.450000X-0.750000X0.450000X-0.750000X0.450000X0.750000X-0.450000X0.750000X0*%
%ADD13RoundRect,0.102000X-0.450000X-0.450000X0.450000X-0.450000X0.450000X0.450000X-0.450000X0.450000X0*%
%ADD14RoundRect,0.250000X-0.625000X0.400000X-0.625000X-0.400000X0.625000X-0.400000X0.625000X0.400000X0*%
%ADD15C,3.048000*%
%ADD16C,1.778800*%
%ADD17C,1.400000*%
%ADD18RoundRect,0.250000X0.400000X0.625000X-0.400000X0.625000X-0.400000X-0.625000X0.400000X-0.625000X0*%
%ADD19RoundRect,0.250000X0.650000X-0.412500X0.650000X0.412500X-0.650000X0.412500X-0.650000X-0.412500X0*%
%ADD20RoundRect,0.250000X-1.000000X-0.900000X1.000000X-0.900000X1.000000X0.900000X-1.000000X0.900000X0*%
%ADD21R,1.500000X1.500000*%
%ADD22RoundRect,0.250000X0.000000X0.777817X-0.777817X0.000000X0.000000X-0.777817X0.777817X0.000000X0*%
%ADD23C,1.600000*%
%ADD24RoundRect,0.250000X0.625000X-0.400000X0.625000X0.400000X-0.625000X0.400000X-0.625000X-0.400000X0*%
%ADD25RoundRect,0.102000X-0.754000X-0.754000X0.754000X-0.754000X0.754000X0.754000X-0.754000X0.754000X0*%
%ADD26C,1.712000*%
%ADD27C,2.604000*%
%ADD28RoundRect,0.250000X-0.412500X-0.650000X0.412500X-0.650000X0.412500X0.650000X-0.412500X0.650000X0*%
%ADD29R,1.709999X1.709999*%
%ADD30C,1.709999*%
%ADD31RoundRect,0.102000X-0.600000X-0.600000X0.600000X-0.600000X0.600000X0.600000X-0.600000X0.600000X0*%
%ADD32RoundRect,0.102000X0.750000X-0.400000X0.750000X0.400000X-0.750000X0.400000X-0.750000X-0.400000X0*%
%ADD33RoundRect,0.102000X0.950000X-0.700000X0.950000X0.700000X-0.950000X0.700000X-0.950000X-0.700000X0*%
%ADD34RoundRect,0.102000X0.700000X-0.900000X0.700000X0.900000X-0.700000X0.900000X-0.700000X-0.900000X0*%
%ADD35RoundRect,0.250000X-0.650000X0.412500X-0.650000X-0.412500X0.650000X-0.412500X0.650000X0.412500X0*%
%ADD36RotRect,1.500000X1.500000X45.000000*%
%ADD37RoundRect,0.250000X0.777817X0.000000X0.000000X0.777817X-0.777817X0.000000X0.000000X-0.777817X0*%
%ADD38R,1.143000X1.092200*%
%ADD39RoundRect,0.250000X1.500000X0.900000X-1.500000X0.900000X-1.500000X-0.900000X1.500000X-0.900000X0*%
%ADD40RoundRect,0.102000X-0.400000X0.400000X-0.400000X-0.400000X0.400000X-0.400000X0.400000X0.400000X0*%
%ADD41RoundRect,0.250000X-0.550000X0.550000X-0.550000X-0.550000X0.550000X-0.550000X0.550000X0.550000X0*%
%ADD42RoundRect,0.250000X0.550000X-0.550000X0.550000X0.550000X-0.550000X0.550000X-0.550000X-0.550000X0*%
%ADD43O,1.152400X2.352400*%
%ADD44O,1.152400X1.952400*%
%ADD45C,3.200000*%
%ADD46RoundRect,0.250000X-0.777817X0.000000X0.000000X-0.777817X0.777817X0.000000X0.000000X0.777817X0*%
%ADD47RoundRect,0.250000X0.412500X0.650000X-0.412500X0.650000X-0.412500X-0.650000X0.412500X-0.650000X0*%
%ADD48RoundRect,0.150000X0.150000X-0.825000X0.150000X0.825000X-0.150000X0.825000X-0.150000X-0.825000X0*%
%ADD49R,0.876300X0.558800*%
%ADD50R,1.244600X0.558800*%
%ADD51R,1.000000X1.000000*%
%ADD52RoundRect,0.102000X-0.750000X-0.750000X0.750000X-0.750000X0.750000X0.750000X-0.750000X0.750000X0*%
%ADD53C,1.704000*%
%ADD54R,0.457200X0.812800*%
%ADD55RoundRect,0.250000X-0.167938X0.751301X-0.751301X0.167938X0.167938X-0.751301X0.751301X-0.167938X0*%
%ADD56R,0.900000X1.000000*%
%ADD57C,3.000000*%
%ADD58RoundRect,0.250001X0.499999X0.759999X-0.499999X0.759999X-0.499999X-0.759999X0.499999X-0.759999X0*%
%ADD59O,1.500000X2.020000*%
G04 APERTURE END LIST*
D10*
%TO.C,J1*%
X70291500Y-89961501D02*
X71008500Y-89961501D01*
X71008500Y-91238501D01*
X70291500Y-91238501D01*
X70291500Y-89961501D01*
G36*
X71008500Y-91238501D02*
G01*
X70291500Y-91238501D01*
X70291500Y-89961501D01*
X71008500Y-89961501D01*
X71008500Y-91238501D01*
G37*
X71091500Y-89961501D02*
X71808500Y-89961501D01*
X71808500Y-91238501D01*
X71091500Y-91238501D01*
X71091500Y-89961501D01*
G36*
X71808500Y-91238501D02*
G01*
X71091500Y-91238501D01*
X71091500Y-89961501D01*
X71808500Y-89961501D01*
X71808500Y-91238501D01*
G37*
X71887500Y-89961501D02*
X72312500Y-89961501D01*
X72312500Y-91238501D01*
X71887500Y-91238501D01*
X71887500Y-89961501D01*
G36*
X72312500Y-91238501D02*
G01*
X71887500Y-91238501D01*
X71887500Y-89961501D01*
X72312500Y-89961501D01*
X72312500Y-91238501D01*
G37*
X72387500Y-89961501D02*
X72812500Y-89961501D01*
X72812500Y-91238501D01*
X72387500Y-91238501D01*
X72387500Y-89961501D01*
G36*
X72812500Y-91238501D02*
G01*
X72387500Y-91238501D01*
X72387500Y-89961501D01*
X72812500Y-89961501D01*
X72812500Y-91238501D01*
G37*
X72887500Y-89961501D02*
X73312500Y-89961501D01*
X73312500Y-91238501D01*
X72887500Y-91238501D01*
X72887500Y-89961501D01*
G36*
X73312500Y-91238501D02*
G01*
X72887500Y-91238501D01*
X72887500Y-89961501D01*
X73312500Y-89961501D01*
X73312500Y-91238501D01*
G37*
X73387500Y-89961501D02*
X73812500Y-89961501D01*
X73812500Y-91238501D01*
X73387500Y-91238501D01*
X73387500Y-89961501D01*
G36*
X73812500Y-91238501D02*
G01*
X73387500Y-91238501D01*
X73387500Y-89961501D01*
X73812500Y-89961501D01*
X73812500Y-91238501D01*
G37*
X73887500Y-89961501D02*
X74312500Y-89961501D01*
X74312500Y-91238501D01*
X73887500Y-91238501D01*
X73887500Y-89961501D01*
G36*
X74312500Y-91238501D02*
G01*
X73887500Y-91238501D01*
X73887500Y-89961501D01*
X74312500Y-89961501D01*
X74312500Y-91238501D01*
G37*
X74387500Y-89961501D02*
X74812500Y-89961501D01*
X74812500Y-91238501D01*
X74387500Y-91238501D01*
X74387500Y-89961501D01*
G36*
X74812500Y-91238501D02*
G01*
X74387500Y-91238501D01*
X74387500Y-89961501D01*
X74812500Y-89961501D01*
X74812500Y-91238501D01*
G37*
X74887500Y-89961501D02*
X75312500Y-89961501D01*
X75312500Y-91238501D01*
X74887500Y-91238501D01*
X74887500Y-89961501D01*
G36*
X75312500Y-91238501D02*
G01*
X74887500Y-91238501D01*
X74887500Y-89961501D01*
X75312500Y-89961501D01*
X75312500Y-91238501D01*
G37*
X75387500Y-89961501D02*
X75812500Y-89961501D01*
X75812500Y-91238501D01*
X75387500Y-91238501D01*
X75387500Y-89961501D01*
G36*
X75812500Y-91238501D02*
G01*
X75387500Y-91238501D01*
X75387500Y-89961501D01*
X75812500Y-89961501D01*
X75812500Y-91238501D01*
G37*
X75891500Y-89961501D02*
X76608500Y-89961501D01*
X76608500Y-91238501D01*
X75891500Y-91238501D01*
X75891500Y-89961501D01*
G36*
X76608500Y-91238501D02*
G01*
X75891500Y-91238501D01*
X75891500Y-89961501D01*
X76608500Y-89961501D01*
X76608500Y-91238501D01*
G37*
X76691500Y-89961501D02*
X77408500Y-89961501D01*
X77408500Y-91238501D01*
X76691500Y-91238501D01*
X76691500Y-89961501D01*
G36*
X77408500Y-91238501D02*
G01*
X76691500Y-91238501D01*
X76691500Y-89961501D01*
X77408500Y-89961501D01*
X77408500Y-91238501D01*
G37*
%TD*%
D11*
%TO.C,U4*%
X69000000Y-33880000D03*
X69000000Y-35150000D03*
X69000000Y-36420000D03*
X69000000Y-37690000D03*
X69000000Y-38960000D03*
X69000000Y-40230000D03*
X69000000Y-41500000D03*
X69000000Y-42770000D03*
X69000000Y-44040000D03*
X69000000Y-45310000D03*
X69000000Y-46580000D03*
X69000000Y-47850000D03*
X69000000Y-49120000D03*
X69000000Y-50390000D03*
D12*
X70765000Y-51640000D03*
X72035000Y-51640000D03*
X73305000Y-51640000D03*
X74575000Y-51640000D03*
X75845000Y-51640000D03*
X77115000Y-51640000D03*
X78385000Y-51640000D03*
X79655000Y-51640000D03*
X80925000Y-51640000D03*
X82195000Y-51640000D03*
X83465000Y-51640000D03*
X84735000Y-51640000D03*
D11*
X86500000Y-50390000D03*
X86500000Y-49120000D03*
X86500000Y-47850000D03*
X86500000Y-46580000D03*
X86500000Y-45310000D03*
X86500000Y-44040000D03*
X86500000Y-42770000D03*
X86500000Y-41500000D03*
X86500000Y-40230000D03*
X86500000Y-38960000D03*
X86500000Y-37690000D03*
X86500000Y-36420000D03*
X86500000Y-35150000D03*
X86500000Y-33880000D03*
D13*
X74850000Y-40200000D03*
X76250000Y-40200000D03*
X77650000Y-40200000D03*
X74850000Y-41600000D03*
X76250000Y-41600000D03*
X77650000Y-41600000D03*
X74850000Y-43000000D03*
X76250000Y-43000000D03*
X77650000Y-43000000D03*
%TD*%
D14*
%TO.C,R6*%
X93600000Y-66825001D03*
X93600000Y-69925001D03*
%TD*%
%TO.C,R10*%
X96700000Y-60125001D03*
X96700000Y-63225001D03*
%TD*%
D15*
%TO.C,MBAT_IN_12V1*%
X49295713Y-91870807D03*
D16*
X50794313Y-87552807D03*
X47797113Y-87552807D03*
%TD*%
D14*
%TO.C,R11*%
X75300000Y-27125001D03*
X75300000Y-30225001D03*
%TD*%
D17*
%TO.C,R8*%
X98025002Y-44424999D03*
X92945002Y-44424999D03*
%TD*%
D18*
%TO.C,R3*%
X43050000Y-32075001D03*
X39950000Y-32075001D03*
%TD*%
D19*
%TO.C,C21*%
X66700000Y-33837501D03*
X66700000Y-30712501D03*
%TD*%
D20*
%TO.C,D1_RP1*%
X53750000Y-75075001D03*
X58050000Y-75075001D03*
%TD*%
D21*
%TO.C,TP9*%
X90500000Y-61000000D03*
%TD*%
D22*
%TO.C,C6*%
X54652459Y-61663926D03*
D23*
X52884692Y-63431693D03*
%TD*%
D24*
%TO.C,R1*%
X60900000Y-41825000D03*
X60900000Y-38725000D03*
%TD*%
D25*
%TO.C,J7*%
X95350000Y-23400001D03*
D26*
X92850000Y-23400001D03*
X90350000Y-23400001D03*
X87850000Y-23400001D03*
X85350000Y-23400001D03*
X82850000Y-23400001D03*
X80350000Y-23400001D03*
X77850000Y-23400001D03*
X75350000Y-23400001D03*
X72850000Y-23400001D03*
%TD*%
D19*
%TO.C,C5*%
X49050000Y-62412501D03*
X49050000Y-59287501D03*
%TD*%
D14*
%TO.C,R12*%
X83750000Y-69525001D03*
X83750000Y-72625001D03*
%TD*%
D18*
%TO.C,R9*%
X72850000Y-56675001D03*
X69750000Y-56675001D03*
%TD*%
D27*
%TO.C,FUSE_2A1*%
X40150000Y-80375001D03*
X40150000Y-83775001D03*
X53620000Y-80375001D03*
X53620000Y-83775001D03*
%TD*%
D28*
%TO.C,C24*%
X69762500Y-54250001D03*
X72887500Y-54250001D03*
%TD*%
D19*
%TO.C,C11*%
X46500000Y-43437501D03*
X46500000Y-40312501D03*
%TD*%
D29*
%TO.C,VR2*%
X43637552Y-45415001D03*
D30*
X43637552Y-42875001D03*
X43637552Y-40335001D03*
%TD*%
D31*
%TO.C,D3*%
X35850000Y-32075001D03*
X37950000Y-32075001D03*
%TD*%
D32*
%TO.C,J2*%
X100000000Y-79415001D03*
X100400000Y-78315001D03*
X100000000Y-77215001D03*
X99800000Y-76115001D03*
X100000000Y-75015001D03*
X99800000Y-73915001D03*
X100000000Y-72815001D03*
X100000000Y-71715001D03*
D33*
X97150000Y-70925001D03*
X96150000Y-84075001D03*
D34*
X110300000Y-72525001D03*
X110300000Y-78225001D03*
%TD*%
D35*
%TO.C,C20*%
X64100000Y-30712501D03*
X64100000Y-33837501D03*
%TD*%
D36*
%TO.C,TP3*%
X64138568Y-44067436D03*
%TD*%
D37*
%TO.C,C8*%
X53467767Y-47642768D03*
D23*
X51700000Y-45875001D03*
%TD*%
D24*
%TO.C,R7*%
X86075000Y-72625002D03*
X86075000Y-69525002D03*
%TD*%
D38*
%TO.C,D2*%
X64500000Y-63387100D03*
X64500000Y-66612900D03*
%TD*%
D39*
%TO.C,D2_TVS1*%
X59200000Y-69675001D03*
X53800000Y-69675001D03*
%TD*%
D40*
%TO.C,D5*%
X99100000Y-63225001D03*
X99100000Y-61725001D03*
%TD*%
D14*
%TO.C,R4*%
X70000000Y-76450000D03*
X70000000Y-79550000D03*
%TD*%
D41*
%TO.C,C13*%
X53125000Y-36600001D03*
D23*
X53125000Y-39100001D03*
%TD*%
D42*
%TO.C,C2*%
X46850000Y-69950001D03*
D23*
X46850000Y-67450001D03*
%TD*%
D43*
%TO.C,J1*%
X69530000Y-95175001D03*
X78170000Y-95175001D03*
D44*
X69530000Y-91175001D03*
X78170000Y-91175001D03*
%TD*%
D45*
%TO.C,H1*%
X39450000Y-24525001D03*
%TD*%
D28*
%TO.C,C10*%
X41137500Y-49675001D03*
X44262500Y-49675001D03*
%TD*%
%TO.C,C9*%
X41137500Y-52075001D03*
X44262500Y-52075001D03*
%TD*%
D14*
%TO.C,R5*%
X78500000Y-84450000D03*
X78500000Y-87550000D03*
%TD*%
D21*
%TO.C,TP2*%
X49194457Y-55732794D03*
%TD*%
%TO.C,TP4*%
X66500000Y-89000000D03*
%TD*%
D18*
%TO.C,R2*%
X86650000Y-57675001D03*
X83550000Y-57675001D03*
%TD*%
D45*
%TO.C,H2*%
X39450000Y-91775001D03*
%TD*%
D46*
%TO.C,C7*%
X57732233Y-51907234D03*
D23*
X59500000Y-53675001D03*
%TD*%
D47*
%TO.C,C4*%
X42887500Y-64400001D03*
X39762500Y-64400001D03*
%TD*%
D48*
%TO.C,U3*%
X93595000Y-52150001D03*
X94865000Y-52150001D03*
X96135000Y-52150001D03*
X97405000Y-52150001D03*
X97405000Y-47200001D03*
X96135000Y-47200001D03*
X94865000Y-47200001D03*
X93595000Y-47200001D03*
%TD*%
D21*
%TO.C,TP1*%
X58500000Y-86000000D03*
%TD*%
D49*
%TO.C,CR1*%
X71314450Y-83939800D03*
X71314450Y-83000000D03*
X71314450Y-82060200D03*
X68685550Y-82060200D03*
X68685550Y-83000000D03*
X68685550Y-83939800D03*
%TD*%
D50*
%TO.C,U2*%
X96225900Y-34622501D03*
X96225900Y-36527501D03*
X98334100Y-35575001D03*
%TD*%
D19*
%TO.C,C27*%
X89200000Y-72687501D03*
X89200000Y-69562501D03*
%TD*%
D45*
%TO.C,H3*%
X105950000Y-24775001D03*
%TD*%
D15*
%TO.C,J3*%
X106898000Y-35073601D03*
D16*
X102580000Y-33575001D03*
X102580000Y-36572201D03*
%TD*%
D28*
%TO.C,C12*%
X43537500Y-37750001D03*
X46662500Y-37750001D03*
%TD*%
D47*
%TO.C,C26*%
X93412500Y-75825001D03*
X90287500Y-75825001D03*
%TD*%
D41*
%TO.C,C1*%
X39650000Y-72472350D03*
D23*
X39650000Y-74972350D03*
%TD*%
D51*
%TO.C,TP8*%
X61055761Y-36453532D03*
%TD*%
D52*
%TO.C,VR1*%
X39710000Y-59275001D03*
D53*
X42250000Y-59275001D03*
X44790000Y-59275001D03*
%TD*%
D54*
%TO.C,U1*%
X95544114Y-40544922D03*
X94844116Y-40544922D03*
X94844116Y-42551522D03*
X95544114Y-42551522D03*
%TD*%
D38*
%TO.C,D1*%
X59000000Y-59887100D03*
X59000000Y-63112900D03*
%TD*%
D55*
%TO.C,C22*%
X65804854Y-37370147D03*
X63595146Y-39579855D03*
%TD*%
D45*
%TO.C,H4*%
X105950000Y-91775001D03*
%TD*%
D21*
%TO.C,TP5*%
X59500000Y-93500000D03*
%TD*%
D56*
%TO.C,SW1*%
X82650000Y-62475001D03*
X86750000Y-62475001D03*
X82650000Y-64075001D03*
X86750000Y-64075001D03*
%TD*%
D28*
%TO.C,C3*%
X36650000Y-66850001D03*
X39775000Y-66850001D03*
%TD*%
D57*
%TO.C,J5*%
X49100000Y-24475001D03*
D58*
X50600000Y-28795001D03*
D59*
X47600000Y-28795001D03*
%TD*%
D57*
%TO.C,J6*%
X59900000Y-24475001D03*
D58*
X61400000Y-28795001D03*
D59*
X58400000Y-28795001D03*
%TD*%
M02*
